<?xml version="1.0" standalone="no"?>
<!DOCTYPE svg PUBLIC "-//W3C//DTD SVG 1.1//EN" "http://www.w3.org/Graphics/SVG/1.1/DTD/svg11.dtd" >
<svg xmlns="http://www.w3.org/2000/svg">
<metadata></metadata>
<defs>
<font id="futurateeligconregular" horiz-adv-x="1024" >
<font-face units-per-em="2048" ascent="1529" descent="-519" />
<missing-glyph horiz-adv-x="382" />
<glyph horiz-adv-x="2048" />
<glyph horiz-adv-x="2048" />
<glyph unicode="&#xd;" horiz-adv-x="2048" />
<glyph unicode=" "  horiz-adv-x="382" />
<glyph unicode="&#x09;" horiz-adv-x="382" />
<glyph unicode="&#xa0;" horiz-adv-x="382" />
<glyph unicode="!" horiz-adv-x="485" d="M150 78q0 38 26.5 64.5t65.5 27.5q38 0 65 -27t27 -65t-27 -65t-66 -27q-37 0 -64 27t-27 65zM180 341v1024h123v-1024h-123z" />
<glyph unicode="&#x22;" horiz-adv-x="642" d="M109 1365h152l-28 -542h-97zM382 1365h152l-28 -542h-97z" />
<glyph unicode="#" horiz-adv-x="751" d="M9 450v115h172l34 262h-154v115h170l56 423h108l-55 -423h141l56 423h110l-56 -423h151v-115h-166l-34 -262h152v-115h-168l-59 -450h-111l60 450h-141l-60 -450h-109l60 450h-157zM290 565h142l33 262h-141z" />
<glyph unicode="$" horiz-adv-x="749" d="M64 1010q0 131 63 214t186 114v158h100v-155q51 -3 108 -24.5t106 -54.5l-63 -97q-100 62 -180 62q-81 0 -135 -47q-66 -58 -66 -164t64 -177q43 -48 179 -126q85 -49 126.5 -82t69.5 -74q63 -90 63 -217q0 -136 -75.5 -234t-196.5 -118v-174h-100v170q-80 14 -127 38 t-102 79l74 87q110 -90 199 -90q100 0 159 78q50 66 50 157q0 89 -47 153q-39 52 -176 132q-88 50 -127.5 81t-72.5 73q-79 101 -79 238z" />
<glyph unicode="%" horiz-adv-x="1029" d="M82 1010q0 362 177 365q81 0 118 -80.5t37 -253.5q0 -368 -167 -368q-165 0 -165 337zM158 1013q0 -129 24.5 -199.5t69.5 -70.5q39 0 55 47q31 88 31 264q0 249 -81 251q-37 0 -56 -38q-43 -82 -43 -254zM182 0l592 1365h73l-590 -1365h-75zM616 327q0 362 177 365 q81 0 118 -80.5t37 -253.5q0 -368 -167 -368q-165 0 -165 337zM692 331q0 -130 24.5 -200.5t69.5 -70.5q39 0 55 46q31 89 31 265q0 249 -81 251q-37 0 -56 -38q-43 -82 -43 -253z" />
<glyph unicode="&#x26;" horiz-adv-x="909" d="M109 352q0 112 47.5 204t154.5 188q-126 227 -126 344q0 116 83 195q77 74 188 74q105 0 174 -70q72 -74 72 -184q0 -92 -53 -175.5t-188 -203.5l235 -445q28 30 94 113l85 -85q-48 -64 -121 -141l84 -166h-134l-41 75q-102 -94 -226 -94q-147 0 -245 123 q-83 105 -83 248zM226 350q0 -92 55 -167q58 -78 151 -78q85 0 173 80l-238 450q-141 -151 -141 -285zM302 1092q0 -55 17 -101t83 -169q178 144 178 284q0 60 -37.5 100t-93.5 40q-63 0 -105 -44.5t-42 -109.5z" />
<glyph unicode="'" horiz-adv-x="369" d="M109 1365h152l-28 -542h-97z" />
<glyph unicode="(" horiz-adv-x="533" d="M109 569q0 234 65 487.5t177 453.5l100 -48q-47 -96 -74 -161q-152 -363 -152 -732q0 -226 54 -438t172 -454l-100 -48q-53 95 -98 212q-144 375 -144 728z" />
<glyph unicode=")" horiz-adv-x="533" d="M82 -323q47 96 74 161q152 363 152 731q0 226 -54 438.5t-172 454.5l100 48q53 -96 98 -212q144 -375 144 -729q0 -234 -65 -487t-177 -453z" />
<glyph unicode="*" horiz-adv-x="751" d="M84 1255l22 70l233 -76v245h72v-245l233 76l22 -70l-232 -75l143 -199l-59 -42l-143 198l-143 -198l-59 42l144 199z" />
<glyph unicode="+" horiz-adv-x="751" d="M68 641v113h250v247h116v-247h248v-113h-248v-249h-116v249h-250z" />
<glyph unicode="," horiz-adv-x="362" d="M12 -250l141 421l128 -59l-181 -403z" />
<glyph unicode="-" horiz-adv-x="283" d="M0 414v143h283v-143h-283z" />
<glyph unicode="." horiz-adv-x="362" d="M89 79q0 37 27 64t65 27t65 -27t27 -65t-27 -65t-65 -27t-65 27t-27 66z" />
<glyph unicode="/" horiz-adv-x="836" d="M-27 -355l801 1849h117l-799 -1849h-119z" />
<glyph unicode="0" horiz-adv-x="749" d="M67 653q0 202 30 357t87 248q76 124 212 126q69 0 128 -41q88 -63 125 -233q32 -145 32 -393q0 -736 -308 -736q-75 0 -138 49q-168 130 -168 623zM190 661q0 -276 60 -448q40 -115 131 -115q39 0 70.5 27.5t46.5 75.5q28 84 44.5 232.5t16.5 311.5q0 267 -40.5 394 t-127.5 129q-35 0 -67 -22.5t-51 -61.5q-37 -77 -60 -220.5t-23 -302.5z" />
<glyph unicode="1" horiz-adv-x="749" d="M155 1246l27 119h276v-1365h-127v1246h-176z" />
<glyph unicode="2" horiz-adv-x="748" d="M76 0l280 578q100 206 133.5 306.5t33.5 195.5q0 103 -48 149q-40 39 -97 39q-158 0 -158 -244v-31h-124q2 128 20 195q26 96 97 147q68 49 159 49q128 0 203.5 -82.5t75.5 -222.5q0 -115 -35 -221.5t-145 -324.5l-208 -413h372v-120h-559z" />
<glyph unicode="3" horiz-adv-x="749" d="M86 320q0 14 1 54h126q0 -101 13 -155q28 -115 144 -115q83 0 121.5 69.5t38.5 217.5q0 301 -229 301h-60v113h53q69 0 105.5 12.5t62.5 46.5q51 63 51 195q0 202 -150 202q-99 0 -127 -88q-14 -44 -15 -127h-118q1 117 36 198q29 65 89 102.5t136 37.5q63 0 120 -25 t91 -68q61 -74 61 -222q0 -240 -156 -314q47 -20 74 -47q51 -51 75 -132.5t24 -205.5q0 -389 -281 -389q-286 0 -286 339z" />
<glyph unicode="4" horiz-adv-x="749" d="M75 367v129l359 869h126v-882h102v-116h-102v-367h-126v367h-359zM195 483h239v429q1 86 11 211l4 41q-27 -104 -79 -234z" />
<glyph unicode="5" horiz-adv-x="749" d="M98 59l35 126q108 -80 196 -80q87 0 140.5 82.5t53.5 216.5q0 147 -57 227.5t-162 80.5q-85 0 -184 -56l84 709h407v-119h-294l-50 -418q42 7 74 7q111 0 184 -71q126 -124 126 -358q0 -238 -127 -352q-80 -73 -194 -73q-128 0 -232 78z" />
<glyph unicode="6" horiz-adv-x="749" d="M93 375q0 230 110 495l205 495h132l-267 -639q70 48 135 48q117 0 182.5 -107.5t65.5 -300.5q0 -216 -86 -309q-70 -76 -188 -76q-117 0 -191 76q-98 100 -98 318zM216 380q0 -140 47 -219q42 -70 122 -70q76 0 112 71.5t36 221.5q0 134 -37 201q-43 79 -122 80 q-76 0 -117 -74t-41 -211z" />
<glyph unicode="7" horiz-adv-x="749" d="M113 1246v119h561l-420 -1365h-133l385 1246h-393z" />
<glyph unicode="8" horiz-adv-x="749" d="M87 378q0 310 173 377q-76 47 -109.5 116.5t-33.5 177.5q0 156 73.5 245.5t201.5 89.5q97 0 160 -58q98 -91 98 -274q0 -111 -34.5 -182t-109.5 -115q83 -46 119.5 -131.5t36.5 -234.5q0 -224 -93 -325q-76 -83 -202 -83q-113 0 -186 80q-94 104 -94 317zM210 391 q0 -142 42 -217.5t121 -75.5q167 0 167 308q0 147 -47 222q-43 69 -118 70q-68 0 -108 -56q-57 -82 -57 -251zM240 1058q0 -244 145 -244q69 0 105.5 58t36.5 166q0 111 -37.5 170t-108.5 60q-141 0 -141 -210z" />
<glyph unicode="9" horiz-adv-x="749" d="M93 999q0 216 86 309q71 76 188 76t191 -76q98 -100 98 -319q0 -228 -110 -494l-205 -495h-132l267 639q-71 -48 -135 -48q-117 0 -182.5 107.5t-65.5 300.5zM216 982q0 -133 37 -202q43 -80 122 -80q76 0 117 74t41 212t-44 213t-125 76q-148 0 -148 -293z" />
<glyph unicode=":" horiz-adv-x="362" d="M89 79q0 37 27 64t65 27t65 -27t27 -65t-27 -65t-65 -27t-65 27t-27 66zM89 850q0 37 27 64t65 27t65 -27t27 -65t-27 -65t-65 -27t-65 27t-27 66z" />
<glyph unicode=";" horiz-adv-x="362" d="M12 -250l141 421l128 -59l-181 -403zM95 850q0 37 27 64t65 27t65 -27t27 -65t-27 -65t-65 -27t-65 27t-27 66z" />
<glyph unicode="&#x3c;" d="M68 634v108l887 407v-123l-754 -338l754 -339v-122z" />
<glyph unicode="=" horiz-adv-x="749" d="M67 531v113h614v-113h-614zM67 750v113h614v-113h-614z" />
<glyph unicode="&#x3e;" d="M69 226v123l754 339l-754 338v123l887 -407v-109z" />
<glyph unicode="?" horiz-adv-x="680" d="M109 1020v96q0 138 63 203t173 65q124 0 179 -80q27 -39 37 -89t10 -144q0 -140 -15.5 -213.5t-53.5 -118.5q-55 -64 -167 -68v-330h-122v440h87q55 0 84 16t43 54q20 54 20 208q0 121 -22 166q-24 48 -85 48q-109 0 -109 -168v-85h-122zM187 78q0 38 26.5 64.5 t64.5 27.5q39 0 66 -27t27 -65q0 -39 -27 -65.5t-67 -26.5q-36 0 -63 27.5t-27 64.5z" />
<glyph unicode="@" horiz-adv-x="1354" d="M64 685q0 190 83 356q76 152 215 244q149 99 326 99q175 0 318 -95q118 -79 185 -209q71 -135 71 -295q0 -112 -35.5 -218.5t-98.5 -178.5q-35 -42 -84.5 -66.5t-97.5 -24.5t-86.5 32t-47.5 79l-6 28q-25 -40 -36 -56q-61 -87 -148 -87q-105 0 -168 102q-66 108 -66 259 q0 178 92 295q77 99 191 99q88 0 136 -82q8 -14 29 -56l14 121h107l-54 -455q-6 -50 -6 -95q0 -81 68 -81q32 0 57 19q54 41 85 107q52 115 52 246q0 229 -137 365q-138 137 -334 137q-215 0 -360 -172q-144 -171 -144 -418q0 -237 131 -404q149 -192 406 -192 q101 0 182.5 24.5t176.5 83.5l48 -103q-193 -112 -404 -112q-202 0 -352 96q-141 89 -220 242q-88 171 -88 366zM509 648q0 -109 33.5 -178.5t86.5 -69.5q34 0 69.5 25.5t58.5 67.5q55 97 55 218q0 101 -36.5 164.5t-95.5 65.5q-73 0 -122 -84t-49 -209z" />
<glyph unicode="A" horiz-adv-x="666" d="M3 0l269 1365h119l273 -1365h-135l-52 281h-289l-50 -281h-135zM208 390h249l-90 482q-31 167 -39 321q-13 -194 -35 -321z" />
<glyph unicode="B" horiz-adv-x="720" d="M112 0v1365h200q138 0 199 -46q49 -37 77.5 -117t28.5 -183q0 -129 -39 -202.5t-130 -115.5q112 -31 156.5 -104.5t44.5 -227.5q0 -228 -111 -311q-45 -34 -95 -46t-144 -12h-187zM239 109h68q100 0 146 41q66 58 66 217q0 282 -206 282h-74v-540zM239 762h69 q100 0 139.5 55t39.5 195q0 139 -36 191.5t-131 52.5h-81v-494z" />
<glyph unicode="C" horiz-adv-x="655" d="M78 641q0 424 122 607q43 65 110.5 101t144.5 36q97 0 164 -45v-139q-92 61 -157 61q-80 0 -139 -58q-115 -113 -115 -514q0 -354 89 -501q23 -38 64.5 -61t89.5 -23q75 0 168 62v-128q-87 -58 -178 -58q-90 0 -172 59q-108 78 -154 247q-37 138 -37 354z" />
<glyph unicode="D" horiz-adv-x="759" d="M112 0v1365h160q202 0 284 -90q68 -75 96.5 -210.5t28.5 -382.5q0 -315 -42 -442q-43 -127 -127 -183.5t-231 -56.5h-169zM239 116h60q105 0 157 57q56 60 76 157t20 302q0 140 -12 275t-29 188q-27 82 -77.5 118t-139.5 36h-55v-1133z" />
<glyph unicode="E" horiz-adv-x="617" d="M112 0v1365h427v-116h-300v-482h292v-116h-292v-535h300v-116h-427z" />
<glyph unicode="F" horiz-adv-x="605" d="M112 0v1365h436v-116h-309v-482h292v-116h-292v-651h-127z" />
<glyph unicode="G" horiz-adv-x="766" d="M78 718q0 191 20 314t63 206q37 68 103.5 107t145.5 39q133 0 206 -96q42 -56 70 -161l-125 -49q-20 99 -55 141t-97 42q-106 0 -153.5 -126.5t-47.5 -408.5q0 -338 43 -489q38 -132 155 -132q49 0 85 27t49 74q21 72 21 273v126h-185v116h312v-275q0 -201 -34 -287 q-70 -178 -257 -178q-92 0 -161 49q-98 69 -131 267q-27 162 -27 421z" />
<glyph unicode="H" horiz-adv-x="789" d="M112 0v1365h127v-544h311v544h127v-1365h-127v705h-311v-705h-127z" />
<glyph unicode="I" horiz-adv-x="351" d="M112 0v1365h127v-1365h-127z" />
<glyph unicode="J" horiz-adv-x="459" d="M3 16v132q66 -58 126 -58q49 0 70 28.5t21 95.5v45v1106h127v-1131q0 -88 -5.5 -122.5t-24.5 -61.5q-49 -70 -168 -70q-69 0 -146 36z" />
<glyph unicode="K" horiz-adv-x="674" d="M112 0v1365h127v-619l274 619h142l-295 -649l297 -716h-144l-274 687v-687h-127z" />
<glyph unicode="L" horiz-adv-x="538" d="M112 0v1365h127v-1249h296v-116h-423z" />
<glyph unicode="M" horiz-adv-x="1022" d="M44 0l192 1365h109l147 -936q23 -152 26 -217q6 91 25 213l160 940h109l167 -1365h-125l-96 887q-10 92 -12 247q-3 -26 -8 -84q-7 -83 -21 -164l-152 -886h-104l-145 888q-14 112 -24 246l-2 -46q-3 -135 -10 -199l-112 -889h-124z" />
<glyph unicode="N" horiz-adv-x="792" d="M112 0v1365h111l310 -928q4 -13 29 -99l12 -42l6 -20q-9 87 -11 199v890h111v-1365h-111l-302 901l-12 41q-21 69 -44 151q10 -109 12 -242v-851h-111z" />
<glyph unicode="O" horiz-adv-x="827" d="M78 684q0 216 31.5 363t96.5 233q76 102 207 104q139 0 215 -107q67 -93 89 -214q33 -175 33 -387q0 -210 -29.5 -355.5t-89.5 -232.5q-74 -107 -216 -107q-337 0 -337 703zM208 683q0 -295 51 -436.5t157 -141.5q64 0 111 51q93 103 93 523q0 310 -47 445t-157 137 q-98 0 -143 -106q-65 -150 -65 -472z" />
<glyph unicode="P" horiz-adv-x="673" d="M112 0v1365h164q151 0 229 -50q118 -75 118 -318q0 -189 -74.5 -266t-256.5 -77h-53v-654h-127zM239 770h84q95 0 132.5 51.5t37.5 181.5q0 137 -42.5 191.5t-148.5 54.5h-63v-479z" />
<glyph unicode="Q" horiz-adv-x="827" d="M78 684q0 700 336 700q139 0 214 -106q66 -94 89 -215q33 -171 33 -366q0 -423 -100 -579l99 -155l-99 -64l-82 127q-62 -45 -156 -45q-334 0 -334 703zM208 683q0 -297 51 -437.5t159 -140.5q46 0 82 27l-121 188l100 65l94 -147q47 148 47 436q0 326 -54 469 q-44 118 -149 118q-99 0 -144 -106q-65 -150 -65 -472z" />
<glyph unicode="R" horiz-adv-x="770" d="M122 0v1365h171q162 0 235 -38q147 -76 147 -318q0 -173 -64.5 -257.5t-203.5 -95.5l316 -656h-145l-318 669v-669h-138zM260 769h85q105 0 148 53.5t43 184.5q0 135 -45.5 188.5t-161.5 53.5h-69v-480z" />
<glyph unicode="S" horiz-adv-x="710" d="M64 1023q0 157 92 261q89 100 222 100q111 0 214 -73v-161q-56 63 -100.5 87t-102.5 24q-91 0 -146 -68q-51 -62 -51 -155q0 -83 40.5 -145t137.5 -128q168 -113 224 -189q65 -87 65 -212q0 -147 -84 -255q-100 -129 -259 -129q-118 0 -214 71v164q107 -110 222 -110 q90 0 148.5 69t58.5 175q0 89 -43 148t-171 146q-144 97 -198.5 179t-54.5 201z" />
<glyph unicode="T" horiz-adv-x="542" d="M3 1249v116h537v-116h-205v-1249h-127v1249h-205z" />
<glyph unicode="U" horiz-adv-x="799" d="M112 410v955h127v-946q0 -115 5 -160t21 -79q36 -75 135 -75q98 0 134 75q16 34 21 81t5 158v946h127v-955q0 -131 -9 -193t-35 -107q-75 -129 -243 -129q-184 0 -254 149q-34 73 -34 280z" />
<glyph unicode="V" horiz-adv-x="668" d="M3 1365h130l172 -904q19 -108 32 -275q14 167 33 271l166 908h129l-276 -1365h-111z" />
<glyph unicode="W" horiz-adv-x="1035" d="M3 1365h130l124 -860q9 -88 23 -256q13 103 31 219l8 48l146 849h110l127 -863q14 -99 33 -253q8 91 34 259l134 857h130l-241 -1365h-116l-133 887q-19 141 -24 254q-3 -28 -7 -78q-8 -102 -23 -181l-152 -882h-116z" />
<glyph unicode="X" horiz-adv-x="652" d="M3 0l265 694l-265 671h136l122 -337q46 -121 65 -240q14 90 66 232l122 345h135l-260 -671l260 -694h-135l-134 387q-43 121 -54 194q-11 -66 -58 -198l-129 -383h-136z" />
<glyph unicode="Y" horiz-adv-x="648" d="M3 1365h136l129 -398q38 -120 63 -245q16 96 60 250l118 393h136l-250 -767v-598h-127v598z" />
<glyph unicode="Z" horiz-adv-x="571" d="M16 0l379 1249h-342v116h501l-381 -1249h344v-116h-501z" />
<glyph unicode="[" horiz-adv-x="547" d="M150 -355v1849h329v-96h-209v-1657h209v-96h-329z" />
<glyph unicode="\" horiz-adv-x="836" d="M-55 1494h117l801 -1849h-119z" />
<glyph unicode="]" horiz-adv-x="547" d="M68 -259h209v1657h-209v96h329v-1849h-329v96z" />
<glyph unicode="^" d="M61 762l370 606h162l370 -606h-137l-316 509l-314 -509h-135z" />
<glyph unicode="_" d="M0 -142h1024v-115h-1024v115z" />
<glyph unicode="`" d="M298 1250l103 85l184 -243l-73 -55z" />
<glyph unicode="a" horiz-adv-x="677" d="M79 473q0 246 51 358q23 51 72 81t108 30q47 0 79.5 -17t67.5 -60v63h118v-928h-118v73q-68 -87 -159 -87q-118 0 -168.5 113t-50.5 374zM201 487q0 -230 29 -317.5t105 -87.5t105 85.5t29 311.5q0 201 -29.5 283t-102.5 84q-72 0 -104 -84t-32 -275z" />
<glyph unicode="b" horiz-adv-x="666" d="M102 0v1494h117v-629q35 43 67.5 60t80.5 17q124 0 177 -108.5t53 -361.5q0 -289 -62 -400q-22 -39 -65 -62.5t-92 -23.5q-91 0 -159 87v-73h-117zM208 487q0 -227 25 -314q26 -91 108 -91q76 0 105 87.5t29 318.5q0 190 -32 274t-104 85q-72 0 -101.5 -81t-29.5 -279z " />
<glyph unicode="c" horiz-adv-x="508" d="M68 447q0 250 81 383q31 52 83 82t109 30q66 0 126 -36v-136q-59 63 -114 63q-78 0 -120.5 -98.5t-42.5 -276.5q0 -185 55 -287q40 -76 104 -76q58 0 118 83v-145q-60 -47 -133 -47q-48 0 -95 26t-79 70q-92 126 -92 365z" />
<glyph unicode="d" horiz-adv-x="666" d="M69 473q0 246 51 358q23 51 72 81t108 30q47 0 79.5 -17t67.5 -60v629h117v-1494h-117v73q-68 -87 -159 -87q-118 0 -168.5 113t-50.5 374zM191 487q0 -230 29 -317.5t105 -87.5q77 0 105 84t28 313q0 204 -28.5 284.5t-102.5 82.5q-72 0 -104 -84t-32 -275z" />
<glyph unicode="e" horiz-adv-x="649" d="M68 462q0 244 83 377q30 48 77.5 75.5t100.5 27.5q123 0 189 -123q63 -117 63 -322q0 -12 -2 -56h-392v-9q0 -162 37 -248q38 -88 111 -89q107 0 120 220h117q-6 -161 -65.5 -245t-167.5 -84q-130 0 -192 104q-79 130 -79 372zM189 539h275q-5 108 -20 177q-13 53 -43 85 t-68 32q-65 0 -101.5 -75t-42.5 -219z" />
<glyph unicode="f" horiz-adv-x="421" d="M32 819v109h105v342q0 125 47 181t126 56q54 0 104 -21v-128q-50 40 -84 40q-40 0 -61 -30q-15 -24 -15 -97v-343h160v-109h-160v-819h-117v819h-105z" />
<glyph unicode="g" horiz-adv-x="685" d="M80 483q0 459 233 459q88 0 153 -78v64h117v-984q0 -93 -6 -132t-26 -77q-54 -104 -209 -104q-128 0 -188 76q-53 68 -53 180q0 10 1 37h117v-6q0 -94 29 -136t97 -42q91 0 109 71q10 38 12 181v73q-64 -65 -148 -65q-125 0 -181.5 114.5t-56.5 368.5zM202 455 q0 -200 40 -288q14 -32 42.5 -51.5t61.5 -19.5q75 0 103 82t28 299q0 207 -32 286q-32 81 -107 83q-66 0 -93 -57q-43 -90 -43 -334z" />
<glyph unicode="h" horiz-adv-x="684" d="M102 0v1494h117v-640q78 88 180 88q46 0 86 -18.5t60 -49.5q36 -54 36 -189v-685h-117v665q0 68 -4 92.5t-17 46.5q-27 42 -84 42q-32 0 -62.5 -16.5t-47.5 -42.5q-30 -47 -30 -162v-625h-117z" />
<glyph unicode="i" horiz-adv-x="322" d="M74 1202q0 37 25.5 62.5t62.5 25.5q36 0 61.5 -26t25.5 -62t-25.5 -61.5t-61.5 -25.5q-37 0 -62.5 25.5t-25.5 61.5zM103 0v928h117v-928h-117z" />
<glyph unicode="j" horiz-adv-x="329" d="M81 1202q0 37 25.5 62.5t63.5 25.5q35 0 60.5 -25.5t25.5 -62.5q0 -36 -25.5 -61.5t-61.5 -25.5q-37 0 -62.5 25.5t-25.5 61.5zM110 -355v1283h117v-1283h-117z" />
<glyph unicode="k" horiz-adv-x="643" d="M102 0v1494h117v-943l230 377h133l-266 -417l339 -511h-147l-289 445v-445h-117z" />
<glyph unicode="l" horiz-adv-x="322" d="M102 0v1494h117v-1494h-117z" />
<glyph unicode="m" horiz-adv-x="1053" d="M102 0v928h117v-78q82 92 179 92q117 0 172 -109q45 59 89 84t103 25q105 0 151 -69q37 -54 37 -183v-690h-117v687q0 83 -25.5 121t-82.5 38q-43 0 -78.5 -26.5t-47.5 -67.5q-15 -50 -15 -159v-593h-117v684q0 75 -15 110q-22 52 -84 52q-74 0 -114 -59q-21 -32 -28 -75 t-7 -137v-575h-117z" />
<glyph unicode="n" horiz-adv-x="684" d="M102 0v928h117v-74q78 88 180 88q94 0 138 -62t44 -195v-685h-117v665q0 68 -4 92.5t-17 46.5q-27 42 -84 42q-32 0 -62.5 -16.5t-47.5 -42.5q-30 -47 -30 -162v-625h-117z" />
<glyph unicode="o" horiz-adv-x="669" d="M68 465q0 472 271 477q127 0 193 -114q36 -63 52 -150.5t16 -225.5q0 -466 -260 -466q-272 0 -272 479zM190 455q0 -360 147 -360q141 0 141 365q0 370 -141 373q-147 0 -147 -378z" />
<glyph unicode="p" horiz-adv-x="666" d="M102 -355v1283h117v-63q35 43 67.5 60t79.5 17q123 0 177 -109t54 -360q0 -291 -62 -401q-22 -39 -65 -62.5t-92 -23.5q-91 0 -159 87v-428h-117zM208 486q0 -226 25 -313q26 -91 108 -91q76 0 105 87.5t29 317.5q0 190 -32 274t-104 85q-72 0 -101.5 -81t-29.5 -279z " />
<glyph unicode="q" horiz-adv-x="677" d="M80 474q0 246 51 357q23 51 72 81t108 30q47 0 79.5 -17t67.5 -60v63h117v-1283h-117v428q-68 -87 -159 -87q-49 0 -92 23.5t-64 62.5q-63 111 -63 402zM202 487q0 -230 29 -317.5t105 -87.5q77 0 105 84t28 313q0 204 -28.5 284.5t-102.5 82.5q-72 0 -104 -84t-32 -275z " />
<glyph unicode="r" horiz-adv-x="404" d="M102 0v928h117v-122q62 136 156 136h1v-136q-16 1 -24 1q-42 0 -76.5 -30t-46.5 -76q-10 -38 -10 -138v-563h-117z" />
<glyph unicode="s" horiz-adv-x="513" d="M57 49v137q89 -91 165 -91q58 0 96.5 41t38.5 103q0 52 -26 90.5t-109 111.5q-91 80 -128 140t-37 127q0 112 74 179q62 55 156 55q83 0 165 -60v-143q-77 94 -157 94q-51 0 -83.5 -34t-32.5 -87q0 -49 27.5 -89t102.5 -103q101 -83 135 -138t34 -135q0 -105 -60 -175 q-74 -86 -188 -86q-89 0 -173 63z" />
<glyph unicode="t" horiz-adv-x="411" d="M39 819v109h98v254h117v-254h155v-109h-155v-819h-117v819h-98z" />
<glyph unicode="u" horiz-adv-x="688" d="M102 224v704h117v-605q0 -103 12 -148q22 -80 113 -80q90 0 111 80q13 46 13 148v605h117v-704q0 -97 -52 -160q-65 -78 -189 -78q-112 0 -177 64t-65 174z" />
<glyph unicode="v" horiz-adv-x="573" d="M14 928h121l123 -556q23 -117 34 -199q8 76 32 196l114 559h121l-206 -928h-126z" />
<glyph unicode="w" horiz-adv-x="912" d="M20 928h119l105 -563q20 -120 25 -195q10 78 24 167l3 22l95 569h118l91 -559q6 -35 22 -164l5 -35q15 114 30 197l114 561h120l-204 -928h-121l-99 627l-4 28q-11 75 -16 117q-2 -22 -7 -67q-7 -57 -11 -79l-102 -626h-120z" />
<glyph unicode="x" horiz-adv-x="579" d="M14 0l213 474l-191 454h129l84 -227q35 -93 47 -166q19 86 53 172l86 221h131l-209 -454l209 -474h-131l-103 264q-34 82 -44 137q-13 -70 -41 -138l-102 -263h-131z" />
<glyph unicode="y" horiz-adv-x="601" d="M14 928h120l117 -515q35 -165 42 -233q5 40 36 176l10 40l126 532h123l-319 -1264h-125l92 361z" />
<glyph unicode="z" horiz-adv-x="563" d="M10 0l367 819h-317v109h494l-375 -819h314v-109h-483z" />
<glyph unicode="{" horiz-adv-x="563" d="M104 513v120q63 17 90 58.5t27 123.5v400q0 145 59.5 213t186.5 68q13 0 32 -1v-101q-58 0 -78 -4t-41 -19q-24 -18 -34 -58.5t-10 -123.5v-383q0 -99 -26.5 -149.5t-98.5 -88.5q70 -38 97.5 -91.5t27.5 -150.5v-370q0 -93 10.5 -134.5t39.5 -58.5q20 -13 38 -16t75 -3 v-101q-21 -1 -32 -1q-130 0 -188 71t-58 231v377q0 89 -26 131.5t-91 60.5z" />
<glyph unicode="|" d="M451 -341v1706h123v-1706h-123z" />
<glyph unicode="}" horiz-adv-x="563" d="M63 -256h20q87 0 114.5 40t27.5 165v383q0 100 26.5 150.5t98.5 87.5q-70 38 -97.5 92t-27.5 150v371q0 92 -10.5 133.5t-38.5 58.5q-21 13 -33.5 15.5t-79.5 3.5v101q18 1 32 1q129 0 187 -71t58 -231v-377q0 -88 26.5 -131t91.5 -60v-121q-64 -17 -91 -58.5t-27 -122.5 v-401q0 -144 -59.5 -212.5t-185.5 -68.5q-12 0 -32 1v101z" />
<glyph unicode="~" horiz-adv-x="1365" d="M192 1251q42 81 75 124q80 102 200 102q78 0 232 -73q90 -43 127.5 -55.5t75.5 -12.5q60 0 102.5 32t90.5 113l79 -47q-112 -221 -287 -221q-44 0 -94.5 17.5t-189.5 81.5q-90 42 -145 42q-56 0 -100 -35.5t-89 -117.5z" />
<glyph horiz-adv-x="542" d="M3 1249v116h537v-116h-205v-1249h-127v1249h-205zM42 1680l76 79l152 -142l151 142l83 -79l-234 -219z" />
<glyph horiz-adv-x="571" d="M16 0l379 1249h-342v116h501l-381 -1249h344v-116h-501zM72 1680l76 79l152 -142l151 142l83 -79l-234 -219z" />
<glyph horiz-adv-x="571" d="M16 0l379 1249h-342v116h501l-381 -1249h344v-116h-501zM217 1515l184 243l103 -85l-214 -212z" />
<glyph horiz-adv-x="558" d="M39 819v109h98v254h117v-254h155v-109h-155v-819h-117v819h-98zM323 1134l131 312l104 -47l-155 -302z" />
<glyph horiz-adv-x="563" d="M10 0l367 819h-317v109h494l-375 -819h314v-109h-483zM85 1257l78 78l146 -142l147 142l77 -78l-224 -220z" />
<glyph unicode="&#xa1;" d="M288 1257l78 78l146 -142l147 142l77 -78l-224 -220z" />
<glyph unicode="&#xa2;" d="M294 1289h109q22 -132 104 -132q90 0 115 132h109q-10 -102 -57 -166q-59 -78 -162 -78q-92 0 -149.5 64t-68.5 180z" />
<glyph unicode="&#xa3;" horiz-adv-x="749" d="M60 62q71 140 177 140q11 0 31 -3q53 80 53 159q0 95 -51 172h-190v86h147q-76 119 -107.5 207.5t-31.5 180.5q0 144 81 237q88 101 230 101q121 0 200.5 -83t84.5 -215l-119 -23q-2 92 -48 145t-122 53q-82 0 -129.5 -57.5t-47.5 -156.5q0 -77 39 -179.5t109 -209.5h213 v-86h-171q36 -75 36 -146q0 -124 -76 -219q20 -12 50 -33q72 -50 108 -50q61 0 72 100l107 -34q-8 -84 -57 -135t-122 -51q-40 0 -70 13.5t-124 72.5q-53 34 -79 34q-58 0 -88 -82z" />
<glyph unicode="&#xa4;" horiz-adv-x="1365" d="M122 1212l73 72l191 -191q141 109 297 109t295 -107l191 189l72 -72l-189 -190q105 -141 105 -293q0 -151 -106 -290l193 -193l-72 -72l-192 192q-138 -108 -295 -108q-150 0 -296 105l-190 -189l-72 72l190 190q-108 133 -108 295q0 150 104 290zM326 729 q0 -148 105 -253q104 -105 252 -105t253 106q104 104 104 252q0 152 -104 254q-103 102 -248 106q-153 0 -258 -106q-104 -105 -104 -254z" />
<glyph unicode="&#xa5;" horiz-adv-x="666" d="M3 0l269 1365h118l274 -1365q-89 -81 -89 -148q0 -63 76 -63q41 0 81 16v-98q-46 -18 -92 -18q-76 0 -121.5 37t-45.5 98q0 45 21 83t76 93h-41l-52 281h-289l-50 -281h-135zM208 390h249l-90 482q-31 167 -39 321q-13 -194 -35 -321z" />
<glyph unicode="&#xa6;" d="M451 314h123v-655h-123v655zM451 690v675h123v-675h-123z" />
<glyph unicode="&#xa7;" horiz-adv-x="751" d="M85 580q0 144 54 236.5t153 119.5q-169 112 -169 297q0 137 85 215q73 66 171 66q68 0 126 -33t92 -91q33 -56 41 -156h-121q-21 171 -139 171q-62 0 -100 -51q-39 -51 -39 -129q0 -73 37.5 -124.5t136.5 -114.5q103 -66 136.5 -93t56.5 -64q59 -92 59 -262 q0 -292 -189 -353q155 -98 155 -287q0 -131 -75 -211q-71 -78 -180 -78q-101 0 -171 68q-42 42 -62 93.5t-28 141.5h120q11 -194 139 -194q63 0 102 51t39 134q0 82 -41.5 137t-145.5 110q-75 40 -107 63t-55 55q-81 106 -81 283zM203 576q0 -287 172 -287t172 261 q0 159 -43 234q-44 75 -131 76q-80 0 -125 -75.5t-45 -208.5z" />
<glyph unicode="&#xa8;" d="M296 1147q0 36 25.5 61.5t62.5 26.5q37 0 63 -25.5t26 -62.5q0 -38 -26 -63.5t-63 -25.5q-36 0 -62 26t-26 63zM550 1147q0 36 25.5 61.5t63.5 26.5q36 0 62 -26t26 -62q0 -37 -26 -63t-63 -26q-36 0 -62 26t-26 63z" />
<glyph unicode="&#xa9;" horiz-adv-x="1548" d="M68 681q0 201 104 372q102 168 283 260q150 77 329 77q190 0 359 -104q170 -105 260 -282q77 -152 77 -322q0 -199 -104 -369t-280 -260q-152 -78 -321 -78q-198 0 -368 104t-261 282q-78 152 -78 320zM148 681q0 -178 93 -331q92 -152 250 -233q134 -69 283 -69 q177 0 328 94q150 93 230 253q68 135 68 287q0 179 -92 333q-90 150 -249 233q-125 65 -276 69q-266 0 -451 -185q-184 -185 -184 -451zM522 662q0 442 251 442q63 0 117 -32v-112q-15 9 -21 12q-54 33 -92 33q-62 0 -97 -52q-49 -73 -49 -266q0 -167 34 -246.5t106 -79.5 q42 0 119 47v-107q-63 -39 -125 -39q-104 0 -167 84q-76 100 -76 316z" />
<glyph unicode="&#xaa;" horiz-adv-x="710" d="M64 1023q0 157 92 261q89 100 222 100q111 0 214 -73v-161q-56 63 -100.5 87t-102.5 24q-91 0 -146 -68q-51 -62 -51 -155q0 -83 40.5 -145t137.5 -128q168 -113 224 -189q65 -87 65 -212q0 -147 -84 -255q-100 -129 -259 -129q-118 0 -214 71v164q107 -110 222 -110 q90 0 148.5 69t58.5 175q0 89 -43 148t-171 146q-144 97 -198.5 179t-54.5 201zM137 -381l158 299l99 -55l-181 -288z" />
<glyph unicode="&#xab;" horiz-adv-x="666" d="M68 485l222 386l79 -44l-195 -342l195 -351l-79 -46zM297 485l222 386l79 -44l-195 -342l195 -351l-79 -46z" />
<glyph unicode="&#xac;" d="M68 432v115h887v-547h-123v432h-764z" />
<glyph unicode="&#xad;" horiz-adv-x="283" d="M0 414v143h283v-143h-283z" />
<glyph unicode="&#xae;" horiz-adv-x="1548" d="M68 681q0 201 104 372q102 168 283 260q150 77 329 77q190 0 359 -104q170 -105 260 -282q77 -152 77 -322q0 -199 -104 -369t-280 -260q-152 -78 -321 -78q-198 0 -368 104t-261 282q-78 152 -78 320zM148 681q0 -178 93 -331q92 -152 250 -233q134 -69 283 -69 q177 0 328 94q150 93 230 253q68 135 68 287q0 179 -92 333q-90 150 -249 233q-125 65 -276 69q-266 0 -451 -185q-184 -185 -184 -451zM596 273v819h113q125 0 174 -45q61 -56 61 -177q0 -193 -149 -215l184 -382h-114l-162 341v-341h-107zM703 746h36q55 0 76 27t21 98 q0 73 -23 100t-84 27h-26v-252z" />
<glyph unicode="&#xaf;" horiz-adv-x="571" d="M16 0l379 1249h-342v116h501l-381 -1249h344v-116h-501zM211 1574q0 39 27 65.5t66 27.5q39 0 66 -27t27 -66t-27.5 -66t-66.5 -27q-38 0 -65 27.5t-27 65.5z" />
<glyph unicode="&#xb0;" horiz-adv-x="751" d="M70 1094q0 125 88 210q92 88 221 88q123 0 213 -88q88 -87 88 -209q0 -123 -88 -210q-90 -88 -217 -88t-217 88q-88 87 -88 209zM175 1094q0 -82 59 -141q58 -59 141 -59q82 0 140 59q59 59 59 142t-57 141t-140 60q-85 0 -143 -59q-59 -58 -59 -143z" />
<glyph unicode="&#xb1;" horiz-adv-x="749" d="M67 190v113h614v-113h-614zM67 641v113h250v247h116v-247h248v-113h-248v-249h-116v249h-250z" />
<glyph unicode="&#xb2;" d="M628 -176q0 45 21.5 83.5t75.5 92.5h94q-89 -80 -89 -148q0 -63 76 -63q40 0 81 16v-98q-46 -18 -92 -18q-76 0 -121.5 37t-45.5 98z" />
<glyph unicode="&#xb3;" horiz-adv-x="352" d="M14 614v127l104 103v650h117v-573l104 103v-127l-104 -103v-794h-117v717z" />
<glyph unicode="&#xb4;" d="M440 1092l184 243l103 -85l-214 -213z" />
<glyph unicode="&#xb5;" horiz-adv-x="688" d="M102 -341v1269h117v-613q0 -69 5 -103q16 -117 120 -117q90 0 111 80q13 46 13 148v605h117v-704q0 -98 -52 -160q-66 -78 -181 -78q-76 0 -140 47l7 -374h-117z" />
<glyph unicode="&#xb6;" horiz-adv-x="751" d="M-7 1020q0 167 74 256t214 89h429l-28 -119h-83v-1448h-123v1448h-118v-1448h-123v894q-19 -1 -28 -1q-72 0 -124 51q-41 40 -65.5 115t-24.5 163z" />
<glyph unicode="&#xb7;" horiz-adv-x="362" d="M89 486q0 37 27 64t65 27t65 -27t27 -65t-27 -65t-65 -27t-65 27t-27 66z" />
<glyph unicode="&#xb8;" d="M392 -354l148 278l94 -53l-172 -266z" />
<glyph unicode="&#xb9;" horiz-adv-x="677" d="M79 473q0 246 51 358q23 51 72 81t108 30q47 0 79.5 -17t67.5 -60v63h118v-928q-88 -80 -88 -148q0 -63 75 -63q40 0 81 16v-98q-45 -18 -92 -18q-76 0 -121.5 37t-45.5 98q0 45 21 83t77 93h-25v73q-68 -87 -159 -87q-49 0 -92 23.5t-64 62.5q-63 111 -63 401zM201 487 q0 -230 29 -317.5t105 -87.5t105 85.5t29 311.5q0 201 -29.5 283t-102.5 84q-72 0 -104 -84t-32 -275z" />
<glyph unicode="&#xba;" horiz-adv-x="513" d="M57 49v137q89 -91 165 -91q58 0 96.5 41t38.5 103q0 52 -26 90.5t-109 111.5q-91 80 -128 140t-37 127q0 112 74 179q62 55 156 55q83 0 165 -60v-143q-77 94 -157 94q-51 0 -83.5 -34t-32.5 -87q0 -49 27.5 -89t102.5 -103q101 -83 135 -138t34 -135q0 -105 -60 -175 q-74 -86 -188 -86q-89 0 -173 63zM65 -354l148 278l94 -53l-172 -266z" />
<glyph unicode="&#xbb;" horiz-adv-x="666" d="M68 134l194 351l-194 342l79 44l222 -386l-222 -397zM297 134l194 351l-194 342l79 44l222 -386l-222 -397z" />
<glyph unicode="&#xbc;" horiz-adv-x="538" d="M112 0v1365h127v-1249h296v-116h-423zM309 1072l131 311l104 -46l-155 -302z" />
<glyph unicode="&#xbd;" d="M372 1084l157 251l93 -62l-184 -236zM590 1084l157 251l93 -62l-183 -236z" />
<glyph unicode="&#xbe;" horiz-adv-x="523" d="M102 0v1494h117v-1494h-117zM288 1182l131 312l104 -47l-155 -302z" />
<glyph unicode="&#xbf;" horiz-adv-x="563" d="M10 0l367 819h-317v109h494l-375 -819h314v-109h-483zM213 1151q0 39 27 65.5t66 27.5q39 0 66 -27t27 -66t-27.5 -66t-66.5 -27q-38 0 -65 27.5t-27 65.5z" />
<glyph unicode="&#xc0;" horiz-adv-x="770" d="M122 0v1365h171q162 0 235 -38q147 -76 147 -318q0 -173 -64.5 -257.5t-203.5 -95.5l316 -656h-145l-318 669v-669h-138zM260 769h85q105 0 148 53.5t43 184.5q0 135 -45.5 188.5t-161.5 53.5h-69v-480zM272 1515l184 243l103 -85l-214 -212z" />
<glyph unicode="&#xc1;" horiz-adv-x="666" d="M3 0l269 1365h119l273 -1365h-135l-52 281h-289l-50 -281h-135zM208 390h249l-90 482q-31 167 -39 321q-13 -194 -35 -321zM258 1515l184 243l103 -85l-214 -212z" />
<glyph unicode="&#xc2;" horiz-adv-x="666" d="M3 0l269 1365h119l273 -1365h-135l-52 281h-289l-50 -281h-135zM104 1539l228 220l234 -220l-83 -78l-151 142l-152 -142zM208 390h249l-90 482q-31 167 -39 321q-13 -194 -35 -321z" />
<glyph unicode="&#xc3;" horiz-adv-x="666" d="M3 0l269 1365h119l273 -1365h-135l-52 281h-289l-50 -281h-135zM108 1712h113q23 -132 107 -132q91 0 118 132h112q-7 -99 -58 -166q-60 -78 -167 -78q-95 0 -156 65.5t-69 178.5zM208 390h249l-90 482q-31 167 -39 321q-13 -194 -35 -321z" />
<glyph unicode="&#xc4;" horiz-adv-x="666" d="M3 0l269 1365h119l273 -1365h-135l-52 281h-289l-50 -281h-135zM114 1570q0 36 25.5 61.5t62.5 26.5q37 0 63 -25.5t26 -62.5q0 -38 -26 -63.5t-63 -25.5q-36 0 -62 26t-26 63zM208 390h249l-90 482q-31 167 -39 321q-13 -194 -35 -321zM376 1570q0 36 25.5 61.5 t62.5 26.5q37 0 63 -26t26 -62q0 -37 -26 -63t-63 -26q-36 0 -62 26t-26 63z" />
<glyph unicode="&#xc5;" horiz-adv-x="538" d="M112 0v1365h127v-1249h296v-116h-423zM112 1515l184 243l103 -85l-214 -212z" />
<glyph unicode="&#xc6;" horiz-adv-x="655" d="M78 641q0 424 122 607q43 65 110.5 101t144.5 36q97 0 164 -45v-139q-92 61 -157 61q-80 0 -139 -58q-115 -113 -115 -514q0 -354 89 -501q23 -38 64.5 -61t89.5 -23q75 0 168 62v-128q-87 -58 -178 -58q-90 0 -172 59q-108 78 -154 247q-37 138 -37 354zM342 1515 l184 243l103 -85l-214 -212z" />
<glyph unicode="&#xc7;" horiz-adv-x="655" d="M78 641q0 424 122 607q43 65 110.5 101t144.5 36q97 0 164 -45v-139q-92 61 -157 61q-80 0 -139 -58q-115 -113 -115 -514q0 -354 89 -501q23 -38 64.5 -61t89.5 -23q75 0 168 62v-128q-87 -58 -178 -58q-90 0 -172 59q-108 78 -154 247q-37 138 -37 354zM227 -381 l158 299l99 -55l-181 -288z" />
<glyph unicode="&#xc8;" horiz-adv-x="655" d="M78 641q0 424 122 607q43 65 110.5 101t144.5 36q97 0 164 -45v-139q-92 61 -157 61q-80 0 -139 -58q-115 -113 -115 -514q0 -354 89 -501q23 -38 64.5 -61t89.5 -23q75 0 168 62v-128q-87 -58 -178 -58q-90 0 -172 59q-108 78 -154 247q-37 138 -37 354zM194 1680l76 79 l152 -142l151 142l83 -79l-234 -219z" />
<glyph unicode="&#xc9;" horiz-adv-x="617" d="M112 0v1365h427v-116h-300v-482h292v-116h-292v-535h300v-116h-427zM237 1515l184 243l103 -85l-214 -212z" />
<glyph unicode="&#xca;" horiz-adv-x="617" d="M112 0v1365h427v-116h-300v-482h292v-116h-292v-535h300v-116q-89 -82 -89 -148q0 -63 76 -63q41 0 82 16v-98q-46 -18 -93 -18q-76 0 -121.5 37t-45.5 98q0 45 21.5 83.5t76.5 92.5h-334z" />
<glyph unicode="&#xcb;" horiz-adv-x="617" d="M106 1570q0 36 25.5 61.5t62.5 26.5q37 0 63 -25.5t26 -62.5q0 -38 -26 -63.5t-63 -25.5q-36 0 -62 26t-26 63zM112 0v1365h427v-116h-300v-482h292v-116h-292v-535h300v-116h-427zM368 1570q0 36 25.5 61.5t62.5 26.5q37 0 63 -26t26 -62q0 -37 -26 -63t-63 -26 q-36 0 -62 26t-26 63z" />
<glyph unicode="&#xcc;" horiz-adv-x="617" d="M95 1680l76 79l152 -142l151 142l83 -79l-234 -219zM112 0v1365h427v-116h-300v-482h292v-116h-292v-535h300v-116h-427z" />
<glyph unicode="&#xcd;" horiz-adv-x="351" d="M100 1515l184 243l103 -85l-214 -212zM112 0v1365h127v-1365h-127z" />
<glyph unicode="&#xce;" horiz-adv-x="351" d="M-41 1539l214 220l221 -220l-83 -78l-138 142l-138 -142zM112 0v1365h127v-1365h-127z" />
<glyph unicode="&#xcf;" horiz-adv-x="759" d="M109 1680l76 79l152 -142l151 142l83 -79l-234 -219zM112 0v1365h160q202 0 284 -90q68 -75 96.5 -210.5t28.5 -382.5q0 -315 -42 -442q-43 -127 -127 -183.5t-231 -56.5h-169zM239 116h60q105 0 157 57q56 60 76 157t20 302q0 140 -12 275t-29 188q-27 82 -77.5 118 t-139.5 36h-55v-1133z" />
<glyph unicode="&#xd0;" horiz-adv-x="759" d="M16 658v102h96v605h160q202 0 284 -90q68 -75 96.5 -210.5t28.5 -380.5q0 -316 -42 -443q-43 -128 -127 -184.5t-231 -56.5h-169v658h-96zM239 116h60q105 0 157 57q56 60 76 157t20 303q0 141 -12 275t-29 187q-27 82 -78 118t-139 36h-55v-489h184v-102h-184v-542z" />
<glyph unicode="&#xd1;" horiz-adv-x="792" d="M112 0v1365h111l310 -928q4 -13 29 -99l12 -42l6 -20q-9 87 -11 199v890h111v-1365h-111l-302 901l-12 41q-21 69 -44 151q10 -109 12 -242v-851h-111zM321 1515l184 243l103 -85l-214 -212z" />
<glyph unicode="&#xd2;" horiz-adv-x="792" d="M112 0v1365h111l310 -928q4 -13 29 -99l12 -42l6 -20q-9 87 -11 199v890h111v-1365h-111l-302 901l-12 41q-21 69 -44 151q10 -109 12 -242v-851h-111zM166 1680l76 79l152 -142l151 142l83 -79l-234 -219z" />
<glyph unicode="&#xd3;" horiz-adv-x="827" d="M78 684q0 216 31.5 363t96.5 233q76 102 207 104q139 0 215 -107q67 -93 89 -214q33 -175 33 -387q0 -210 -29.5 -355.5t-89.5 -232.5q-74 -107 -216 -107q-337 0 -337 703zM208 683q0 -295 51 -436.5t157 -141.5q64 0 111 51q93 103 93 523q0 310 -47 445t-157 137 q-98 0 -143 -106q-65 -150 -65 -472zM332 1515l184 243l103 -85l-214 -212z" />
<glyph unicode="&#xd4;" horiz-adv-x="827" d="M78 684q0 216 31.5 363t96.5 233q76 102 207 104q139 0 215 -107q67 -93 89 -214q33 -175 33 -387q0 -210 -29.5 -355.5t-89.5 -232.5q-74 -107 -216 -107q-337 0 -337 703zM184 1539l228 220l234 -220l-83 -78l-151 142l-152 -142zM208 683q0 -295 51 -436.5t157 -141.5 q64 0 111 51q93 103 93 523q0 310 -47 445t-157 137q-98 0 -143 -106q-65 -150 -65 -472z" />
<glyph unicode="&#xd5;" horiz-adv-x="827" d="M78 684q0 216 31.5 363t96.5 233q76 102 207 104q139 0 215 -107q67 -93 89 -214q33 -175 33 -387q0 -210 -29.5 -355.5t-89.5 -232.5q-74 -107 -216 -107q-337 0 -337 703zM186 1501q21 156 139 156q26 0 46.5 -6.5t95.5 -40.5q26 -11 43 -11q33 0 33 41q0 3 -1 9h116 q-13 -156 -143 -156q-47 0 -136 44q-31 15 -44 15q-35 0 -35 -40q0 -4 1 -11h-115zM208 683q0 -295 51 -436.5t157 -141.5q64 0 111 51q93 103 93 523q0 310 -47 445t-157 137q-98 0 -143 -106q-65 -150 -65 -472z" />
<glyph unicode="&#xd6;" horiz-adv-x="827" d="M78 684q0 216 31.5 363t96.5 233q76 102 207 104q139 0 215 -107q67 -93 89 -214q33 -175 33 -387q0 -210 -29.5 -355.5t-89.5 -232.5q-74 -107 -216 -107q-337 0 -337 703zM194 1570q0 36 25.5 61.5t62.5 26.5q37 0 63 -25.5t26 -62.5q0 -38 -26 -63.5t-63 -25.5 q-36 0 -62 26t-26 63zM208 683q0 -295 51 -436.5t157 -141.5q64 0 111 51q93 103 93 523q0 310 -47 445t-157 137q-98 0 -143 -106q-65 -150 -65 -472zM456 1570q0 36 25.5 61.5t62.5 26.5q37 0 63 -26t26 -62q0 -37 -26 -63t-63 -26q-36 0 -62 26t-26 63z" />
<glyph unicode="&#xd7;" horiz-adv-x="750" d="M108 883l80 80l187 -187l187 187l79 -79l-186 -187l187 -187l-80 -81l-188 188l-186 -187l-79 79l186 187z" />
<glyph unicode="&#xd8;" horiz-adv-x="770" d="M122 0v1365h171q162 0 235 -38q147 -76 147 -318q0 -173 -64.5 -257.5t-203.5 -95.5l316 -656h-145l-318 669v-669h-138zM127 1680l76 79l152 -142l151 142l83 -79l-234 -219zM260 769h85q105 0 148 53.5t43 184.5q0 135 -45.5 188.5t-161.5 53.5h-69v-480z" />
<glyph unicode="&#xd9;" horiz-adv-x="799" d="M112 410v955h127v-946q0 -115 5 -160t21 -79q36 -75 135 -75q98 0 134 75q16 34 21 81t5 158v946h127v-955q0 -131 -9 -193t-35 -107q-75 -129 -243 -129q-184 0 -254 149q-34 73 -34 280zM242 1611q0 65 45.5 110.5t111.5 46.5q65 0 111 -46t46 -111q0 -66 -46 -111.5 t-113 -45.5q-63 0 -109 46.5t-46 110.5zM324 1611q0 -31 22 -53t52 -22q32 0 54 22t22 53q0 32 -21.5 53.5t-53.5 21.5q-31 0 -53 -22t-22 -53z" />
<glyph unicode="&#xda;" horiz-adv-x="799" d="M112 410v955h127v-946q0 -115 5 -160t21 -79q36 -75 135 -75q98 0 134 75q16 34 21 81t5 158v946h127v-955q0 -131 -9 -193t-35 -107q-75 -129 -243 -129q-184 0 -254 149q-34 73 -34 280zM324 1515l184 243l103 -85l-214 -212z" />
<glyph unicode="&#xdb;" horiz-adv-x="799" d="M112 410v955h127v-946q0 -115 5 -160t21 -79q36 -75 135 -75q98 0 134 75q16 34 21 81t5 158v946h127v-955q0 -131 -9 -193t-35 -107q-75 -129 -243 -129q-184 0 -254 149q-34 73 -34 280zM236 1507l170 251l96 -61l-200 -236zM461 1507l171 251l96 -61l-200 -236z" />
<glyph unicode="&#xdc;" horiz-adv-x="799" d="M112 410v955h127v-946q0 -115 5 -160t21 -79q36 -75 135 -75q98 0 134 75q16 34 21 81t5 158v946h127v-955q0 -131 -9 -193t-35 -107q-75 -129 -243 -129q-184 0 -254 149q-34 73 -34 280zM180 1570q0 36 25.5 61.5t62.5 26.5q37 0 63 -25.5t26 -62.5q0 -38 -26 -63.5 t-63 -25.5q-36 0 -62 26t-26 63zM442 1570q0 36 25.5 61.5t62.5 26.5q37 0 63 -26t26 -62q0 -37 -26 -63t-63 -26q-36 0 -62 26t-26 63z" />
<glyph unicode="&#xdd;" horiz-adv-x="648" d="M3 1365h136l129 -398q38 -120 63 -245q16 96 60 250l118 393h136l-250 -767v-598h-127v598zM249 1515l184 243l103 -85l-214 -212z" />
<glyph unicode="&#xde;" horiz-adv-x="542" d="M3 1249v116h537v-116h-205v-1249h-127v1249h-205zM94 -401l131 312l104 -46l-155 -303z" />
<glyph unicode="&#xdf;" horiz-adv-x="696" d="M9 838v120h106v182q0 113 12.5 175t44.5 108q27 39 77.5 61.5t109.5 22.5q103 0 166 -60q86 -80 86 -264q0 -117 -32 -185t-102 -100q51 -21 84 -64q67 -87 67 -382q0 -134 -16.5 -214.5t-55.5 -139.5q-65 -98 -191 -98h-43v117h35q84 0 116.5 80t32.5 288q0 195 -33 274 t-115 79h-36v120h35q69 0 100.5 47.5t31.5 152.5q0 240 -134 240q-67 0 -95 -55.5t-28 -188.5v-1154h-117v838h-106z" />
<glyph unicode="&#xe0;" horiz-adv-x="404" d="M102 0v928h117v-122q62 137 157 136v-136q-16 1 -24 1q-42 0 -76.5 -30t-46.5 -76q-10 -38 -10 -138v-563h-117zM137 1092l184 243l103 -85l-214 -213z" />
<glyph unicode="&#xe1;" horiz-adv-x="677" d="M79 473q0 246 51 358q23 51 72 81t108 30q47 0 79.5 -17t67.5 -60v63h118v-928h-118v73q-68 -87 -159 -87q-118 0 -168.5 113t-50.5 374zM201 487q0 -230 29 -317.5t105 -87.5t105 85.5t29 311.5q0 201 -29.5 283t-102.5 84q-72 0 -104 -84t-32 -275zM265 1092l184 243 l103 -85l-214 -213z" />
<glyph unicode="&#xe2;" horiz-adv-x="677" d="M79 473q0 246 51 358q23 51 72 81t108 30q47 0 79.5 -17t67.5 -60v63h118v-928h-118v73q-68 -87 -159 -87q-118 0 -168.5 113t-50.5 374zM130 1116l224 219l224 -219l-77 -79l-147 143l-146 -143zM201 487q0 -230 29 -317.5t105 -87.5t105 85.5t29 311.5q0 201 -29.5 283 t-102.5 84q-72 0 -104 -84t-32 -275z" />
<glyph unicode="&#xe3;" horiz-adv-x="677" d="M79 473q0 246 51 358q23 51 72 81t108 30q47 0 79.5 -17t67.5 -60v63h118v-928h-118v73q-68 -87 -159 -87q-118 0 -168.5 113t-50.5 374zM136 1289h109q22 -132 104 -132q90 0 115 132h109q-10 -102 -57 -166q-59 -78 -162 -78q-92 0 -149.5 64t-68.5 180zM201 487 q0 -230 29 -317.5t105 -87.5t105 85.5t29 311.5q0 201 -29.5 283t-102.5 84q-72 0 -104 -84t-32 -275z" />
<glyph unicode="&#xe4;" horiz-adv-x="677" d="M79 473q0 246 51 358q23 51 72 81t108 30q47 0 79.5 -17t67.5 -60v63h118v-928h-118v73q-68 -87 -159 -87q-118 0 -168.5 113t-50.5 374zM138 1147q0 36 25.5 61.5t62.5 26.5q37 0 63 -25.5t26 -62.5q0 -38 -26 -63.5t-63 -25.5q-36 0 -62 26t-26 63zM201 487 q0 -230 29 -317.5t105 -87.5t105 85.5t29 311.5q0 201 -29.5 283t-102.5 84q-72 0 -104 -84t-32 -275zM392 1147q0 36 25.5 61.5t63.5 26.5q36 0 62 -26t26 -62q0 -37 -26 -63t-63 -26q-36 0 -62 26t-26 63z" />
<glyph unicode="&#xe5;" horiz-adv-x="322" d="M93 1617l184 243l103 -85l-214 -213zM103 0v1494h117v-1494h-117z" />
<glyph unicode="&#xe6;" horiz-adv-x="508" d="M68 447q0 250 81 383q31 52 83 82t109 30q66 0 126 -36v-136q-59 63 -114 63q-78 0 -120.5 -98.5t-42.5 -276.5q0 -185 55 -287q40 -76 104 -76q58 0 118 83v-145q-60 -47 -133 -47q-48 0 -95 26t-79 70q-92 126 -92 365zM245 1092l184 243l103 -85l-214 -213z" />
<glyph unicode="&#xe7;" horiz-adv-x="508" d="M68 447q0 250 81 383q31 52 83 82t109 30q66 0 126 -36v-136q-59 63 -114 63q-78 0 -120.5 -98.5t-42.5 -276.5q0 -185 55 -287q40 -76 104 -76q58 0 118 83v-145q-60 -47 -133 -47q-48 0 -95 26t-79 70q-92 126 -92 365zM133 -354l148 278l94 -53l-172 -266z" />
<glyph unicode="&#xe8;" horiz-adv-x="508" d="M68 447q0 250 81 383q31 52 83 82t109 30q66 0 126 -36v-136q-59 63 -114 63q-78 0 -120.5 -98.5t-42.5 -276.5q0 -185 55 -287q40 -76 104 -76q58 0 118 83v-145q-60 -47 -133 -47q-48 0 -95 26t-79 70q-92 126 -92 365zM112 1257l77 78l133 -142l133 142l77 -78 l-210 -220z" />
<glyph unicode="&#xe9;" horiz-adv-x="649" d="M68 462q0 244 83 377q30 48 77.5 75.5t100.5 27.5q123 0 189 -123q63 -117 63 -322q0 -12 -2 -56h-392q-1 -169 37 -257.5t111 -88.5q107 0 120 220h117q-6 -161 -65.5 -245t-167.5 -84q-130 0 -192 104q-79 130 -79 372zM189 539h275q-5 108 -20 177q-13 53 -43 85 t-68 32q-65 0 -101.5 -75t-42.5 -219zM249 1092l184 243l103 -85l-214 -213z" />
<glyph unicode="&#xea;" horiz-adv-x="649" d="M67 462q0 244 83 378q30 47 77.5 74.5t100.5 27.5q123 0 189 -123q63 -116 63 -322q0 -14 -1 -56h-393q-1 -169 37 -257.5t111 -88.5q108 0 121 220h117q-4 -100 -26 -161.5t-78 -130.5q-81 -101 -81 -150q0 -64 76 -64q40 0 82 17v-99q-46 -18 -92 -18q-56 0 -98 21 q-69 35 -69 114q0 89 78 144q-22 -2 -33 -2q-56 0 -106 28t-79 76q-79 128 -79 372zM188 539h275q-4 109 -20 177q-12 54 -42 85.5t-69 31.5q-64 0 -100.5 -74.5t-43.5 -219.5z" />
<glyph unicode="&#xeb;" horiz-adv-x="649" d="M68 462q0 244 83 377q30 48 77.5 75.5t100.5 27.5q123 0 189 -123q63 -117 63 -322q0 -12 -2 -56h-392q-1 -169 37 -257.5t111 -88.5q107 0 120 220h117q-6 -161 -65.5 -245t-167.5 -84q-130 0 -192 104q-79 130 -79 372zM114 1147q0 36 25.5 61.5t62.5 26.5 q37 0 63 -25.5t26 -62.5q0 -38 -26 -63.5t-63 -25.5q-36 0 -62 26t-26 63zM189 539h275q-5 108 -20 177q-13 53 -43 85t-68 32q-65 0 -101.5 -75t-42.5 -219zM368 1147q0 36 25.5 61.5t63.5 26.5q36 0 62 -26t26 -62q0 -37 -26 -63t-63 -26q-36 0 -62 26t-26 63z" />
<glyph unicode="&#xec;" horiz-adv-x="649" d="M68 462q0 244 83 377q30 48 77.5 75.5t100.5 27.5q123 0 189 -123q63 -117 63 -322q0 -12 -2 -56h-392q-1 -169 37 -257.5t111 -88.5q107 0 120 220h117q-6 -161 -65.5 -245t-167.5 -84q-130 0 -192 104q-79 130 -79 372zM107 1257l78 78l146 -142l147 142l77 -78 l-224 -220zM189 539h275q-5 108 -20 177q-13 53 -43 85t-68 32q-65 0 -101.5 -75t-42.5 -219z" />
<glyph unicode="&#xed;" horiz-adv-x="322" d="M86 1092l184 243l103 -85l-214 -213zM102 0v928h117v-928h-117z" />
<glyph unicode="&#xee;" horiz-adv-x="322" d="M-49 1116l210 219l211 -219l-78 -79l-133 143l-132 -143zM103 0v928h117v-928h-117z" />
<glyph unicode="&#xef;" horiz-adv-x="867" d="M68 473q0 246 51 358q23 51 72 81t108 30q47 0 79.5 -17t67.5 -60v629h117v-1494h-117v73q-68 -87 -159 -87q-118 0 -168.5 113t-50.5 374zM190 487q0 -230 29 -317.5t105 -87.5q77 0 105 84t28 313q0 204 -28.5 284.5t-102.5 82.5q-72 0 -104 -84t-32 -275zM632 1182 l131 312l104 -47l-155 -302z" />
<glyph unicode="&#xf0;" horiz-adv-x="666" d="M68 451q0 265 53 380q51 111 177 111q48 0 80.5 -17t68.5 -60v301h-151v96h151v232h117v-232h82v-96h-82v-1166h-117v73q-69 -87 -159 -87q-48 0 -90.5 23.5t-66.5 63.5q-33 58 -48 146t-15 232zM190 463q0 -228 38 -316q28 -65 96 -65q75 0 104.5 84.5t29.5 297.5 q0 220 -32 305q-29 75 -103 77q-73 0 -103 -86.5t-30 -296.5z" />
<glyph unicode="&#xf1;" horiz-adv-x="684" d="M102 0v928h117v-74q78 88 180 88q94 0 138 -62t44 -195v-685h-117v665q0 68 -4 92.5t-17 46.5q-27 42 -84 42q-32 0 -62.5 -16.5t-47.5 -42.5q-30 -47 -30 -162v-625h-117zM253 1092l184 243l103 -85l-214 -213z" />
<glyph unicode="&#xf2;" horiz-adv-x="684" d="M102 0v928h117v-74q78 88 180 88q94 0 138 -62t44 -195v-685h-117v665q0 68 -4 92.5t-17 46.5q-27 42 -84 42q-32 0 -62.5 -16.5t-47.5 -42.5q-30 -47 -30 -162v-625h-117zM111 1257l78 78l146 -142l147 142l77 -78l-224 -220z" />
<glyph unicode="&#xf3;" horiz-adv-x="669" d="M68 465q0 472 271 477q127 0 193 -114q36 -63 52 -150.5t16 -225.5q0 -466 -260 -466q-272 0 -272 479zM190 455q0 -360 147 -360q141 0 141 365q0 370 -141 373q-147 0 -147 -378zM259 1092l184 243l103 -85l-214 -213z" />
<glyph unicode="&#xf4;" horiz-adv-x="669" d="M68 465q0 472 271 477q127 0 193 -114q36 -63 52 -150.5t16 -225.5q0 -466 -260 -466q-272 0 -272 479zM110 1116l224 219l224 -219l-77 -79l-147 143l-146 -143zM190 455q0 -360 147 -360q141 0 141 365q0 370 -141 373q-147 0 -147 -378z" />
<glyph unicode="&#xf5;" horiz-adv-x="669" d="M68 465q0 472 271 477q127 0 193 -114q36 -63 52 -150.5t16 -225.5q0 -466 -260 -466q-272 0 -272 479zM105 1077q21 157 139 157q26 0 46 -6.5t96 -40.5q27 -12 43 -12q33 0 33 42q0 3 -1 9h116q-13 -157 -143 -157q-48 0 -136 44q-31 15 -44 15q-35 0 -35 -40 q0 -3 1 -11h-115zM190 455q0 -360 147 -360q141 0 141 365q0 370 -141 373q-147 0 -147 -378z" />
<glyph unicode="&#xf6;" horiz-adv-x="669" d="M68 465q0 472 271 477q127 0 193 -114q36 -63 52 -150.5t16 -225.5q0 -466 -260 -466q-272 0 -272 479zM119 1147q0 36 25.5 61.5t62.5 26.5q37 0 63 -25.5t26 -62.5q0 -38 -26 -63.5t-63 -25.5q-36 0 -62 26t-26 63zM190 455q0 -360 147 -360q141 0 141 365 q0 370 -141 373q-147 0 -147 -378zM373 1147q0 36 25.5 61.5t63.5 26.5q36 0 62 -26t26 -62q0 -37 -26 -63t-63 -26q-36 0 -62 26t-26 63z" />
<glyph unicode="&#xf7;" horiz-adv-x="749" d="M67 641v113h614v-113h-614zM287 444q0 35 25.5 60.5t62.5 25.5q36 0 61.5 -25.5t25.5 -61.5q0 -37 -25.5 -62.5t-61.5 -25.5q-37 0 -62.5 26t-25.5 63zM287 952q0 35 25.5 60t62.5 26q36 0 61.5 -25.5t25.5 -61.5q0 -37 -25.5 -62.5t-61.5 -25.5q-37 0 -62.5 26t-25.5 63 z" />
<glyph unicode="&#xf8;" horiz-adv-x="404" d="M5 1257l78 78l146 -142l147 142l77 -78l-224 -220zM103 0v928h117v-122q62 137 157 136v-136q-16 1 -24 1q-42 0 -76.5 -30t-46.5 -76q-10 -38 -10 -138v-563h-117z" />
<glyph unicode="&#xf9;" horiz-adv-x="688" d="M102 224v704h117v-605q0 -103 12 -148q22 -80 113 -80q90 0 111 80q13 46 13 148v605h117v-704q0 -97 -52 -160q-65 -78 -189 -78q-112 0 -177 64t-65 174zM187 1194q0 65 45.5 110.5t111.5 46.5q65 0 111 -46t46 -111q0 -66 -46 -111.5t-113 -45.5q-63 0 -109 46.5 t-46 110.5zM269 1194q0 -31 22 -53t52 -22q32 0 54 21.5t22 53.5q0 31 -21.5 53t-53.5 22q-31 0 -53 -22t-22 -53z" />
<glyph unicode="&#xfa;" horiz-adv-x="688" d="M102 224v704h117v-605q0 -103 12 -148q22 -80 113 -80q90 0 111 80q13 46 13 148v605h117v-704q0 -97 -52 -160q-65 -78 -189 -78q-112 0 -177 64t-65 174zM269 1092l184 243l103 -85l-214 -213z" />
<glyph unicode="&#xfb;" horiz-adv-x="688" d="M102 224v704h117v-605q0 -103 12 -148q22 -80 113 -80q90 0 111 80q13 46 13 148v605h117v-704q0 -97 -52 -160q-65 -78 -189 -78q-112 0 -177 64t-65 174zM171 1084l157 251l93 -62l-184 -236zM389 1084l157 251l93 -62l-183 -236z" />
<glyph unicode="&#xfc;" horiz-adv-x="688" d="M102 224v704h117v-605q0 -103 12 -148q22 -80 113 -80q90 0 111 80q13 46 13 148v605h117v-704q0 -97 -52 -160q-65 -78 -189 -78q-112 0 -177 64t-65 174zM128 1147q0 36 25.5 61.5t62.5 26.5q37 0 63 -25.5t26 -62.5q0 -38 -26 -63.5t-63 -25.5q-36 0 -62 26t-26 63z M382 1147q0 36 25.5 61.5t63.5 26.5q36 0 62 -26t26 -62q0 -37 -26 -63t-63 -26q-36 0 -62 26t-26 63z" />
<glyph unicode="&#xfd;" horiz-adv-x="601" d="M14 928h120l117 -515q35 -165 42 -233q5 40 36 176l10 40l126 532h123l-319 -1264h-125l92 361zM230 1092l184 243l103 -85l-214 -213z" />
<glyph unicode="&#xfe;" horiz-adv-x="411" d="M21 -386l129 304l103 -47l-152 -294zM38 819v109h98v254h117v-254h155v-109h-155v-819h-117v819h-98z" />
<glyph unicode="&#xff;" d="M419 1151q0 39 27 65.5t66 27.5q39 0 66 -27t27 -66t-27.5 -66t-66.5 -27q-38 0 -65 27.5t-27 65.5z" />
<glyph unicode="&#x152;" horiz-adv-x="710" d="M64 1023q0 157 92 261q89 100 222 100q111 0 214 -73v-161q-56 63 -100.5 87t-102.5 24q-91 0 -146 -68q-51 -62 -51 -155q0 -83 40.5 -145t137.5 -128q168 -113 224 -189q65 -87 65 -212q0 -147 -84 -255q-100 -129 -259 -129q-118 0 -214 71v164q107 -110 222 -110 q90 0 148.5 69t58.5 175q0 89 -43 148t-171 146q-144 97 -198.5 179t-54.5 201zM280 1515l184 243l103 -85l-214 -212z" />
<glyph unicode="&#x153;" horiz-adv-x="514" d="M57 49v137q89 -91 165 -91q58 0 96.5 41t38.5 103q0 52 -26 90.5t-109 111.5q-91 80 -128 140t-37 127q0 112 74 179q62 55 156 55q83 0 165 -60v-143q-77 94 -157 94q-51 0 -83.5 -34t-32.5 -87q0 -49 27.5 -89t102.5 -103q101 -83 135 -138t34 -135q0 -105 -60 -175 q-74 -86 -188 -86q-89 0 -173 63zM192 1092l184 243l103 -85l-214 -213z" />
<glyph unicode="&#x178;" horiz-adv-x="563" d="M10 0l367 819h-317v109h494l-375 -819h314v-109h-483zM223 1092l184 243l103 -85l-214 -213z" />
<glyph unicode="&#x2000;" horiz-adv-x="930" />
<glyph unicode="&#x2001;" horiz-adv-x="1860" />
<glyph unicode="&#x2002;" horiz-adv-x="930" />
<glyph unicode="&#x2003;" horiz-adv-x="1860" />
<glyph unicode="&#x2004;" horiz-adv-x="620" />
<glyph unicode="&#x2005;" horiz-adv-x="465" />
<glyph unicode="&#x2006;" horiz-adv-x="310" />
<glyph unicode="&#x2007;" horiz-adv-x="310" />
<glyph unicode="&#x2008;" horiz-adv-x="232" />
<glyph unicode="&#x2009;" horiz-adv-x="372" />
<glyph unicode="&#x200a;" horiz-adv-x="103" />
<glyph unicode="&#x2010;" horiz-adv-x="283" d="M0 414v143h283v-143h-283z" />
<glyph unicode="&#x2011;" horiz-adv-x="283" d="M0 414v143h283v-143h-283z" />
<glyph unicode="&#x2012;" horiz-adv-x="283" d="M0 414v143h283v-143h-283z" />
<glyph unicode="&#x2013;" horiz-adv-x="751" d="M136 414v143h479v-143h-479z" />
<glyph unicode="&#x2014;" horiz-adv-x="848" d="M0 414v143h848v-143h-848z" />
<glyph unicode="&#x2018;" horiz-adv-x="419" d="M82 980l181 403l88 -41l-141 -421z" />
<glyph unicode="&#x2019;" horiz-adv-x="419" d="M82 963l141 420l128 -58l-181 -404z" />
<glyph unicode="&#x201a;" horiz-adv-x="419" d="M68 -250l141 421l128 -59l-181 -403z" />
<glyph unicode="&#x201c;" horiz-adv-x="661" d="M82 980l181 403l88 -41l-141 -421zM324 980l181 403l87 -41l-141 -421z" />
<glyph unicode="&#x201d;" horiz-adv-x="661" d="M82 963l141 420l128 -58l-181 -404zM324 963l141 420l127 -58l-181 -404z" />
<glyph unicode="&#x201e;" horiz-adv-x="661" d="M68 -250l141 421l128 -59l-181 -403zM310 -250l141 421l127 -59l-181 -403z" />
<glyph unicode="&#x2022;" horiz-adv-x="1365" d="M401 694q0 120 84 202q85 82 204 82q113 0 196 -83q84 -83 84 -201t-83 -201t-201 -83q-116 0 -199 82q-85 84 -85 202z" />
<glyph unicode="&#x2026;" horiz-adv-x="1004" d="M75 79q0 37 27 64t65 27t65 -27t27 -65t-27 -65t-65 -27t-65 27t-27 66zM410 79q0 37 27 63.5t65 27.5q38 0 65 -27t27 -65t-27 -65t-65 -27t-65 27t-27 66zM744 79q0 37 27 64t65 27t65 -27t27 -65t-27 -65t-65 -27t-65 27t-27 66z" />
<glyph unicode="&#x202f;" horiz-adv-x="372" />
<glyph unicode="&#x2039;" horiz-adv-x="437" d="M68 485l222 386l79 -44l-195 -342l195 -351l-79 -46z" />
<glyph unicode="&#x203a;" horiz-adv-x="437" d="M68 134l194 351l-194 342l79 44l222 -386l-222 -397z" />
<glyph unicode="&#x205f;" horiz-adv-x="465" />
<glyph unicode="&#x2122;" horiz-adv-x="931" d="M22 1286v79h315v-79h-115v-699h-85v699h-115zM347 587l110 778h73l91 -575l97 575h74l95 -778h-84l-58 534l-92 -534h-70l-86 525l-66 -525h-84z" />
<glyph unicode="&#xe000;" horiz-adv-x="930" d="M0 0v930h930v-930h-930z" />
</font>
</defs>
</svg>
