<?xml version="1.0" standalone="no"?>
<!DOCTYPE svg PUBLIC "-//W3C//DTD SVG 1.1//EN" "http://www.w3.org/Graphics/SVG/1.1/DTD/svg11.dtd" >
<svg xmlns="http://www.w3.org/2000/svg">
<metadata></metadata>
<defs>
<font id="futurateemedregular" horiz-adv-x="1161" >
<font-face units-per-em="2048" ascent="1529" descent="-519" />
<missing-glyph horiz-adv-x="512" />
<glyph horiz-adv-x="2048" />
<glyph horiz-adv-x="2048" />
<glyph unicode="&#xd;" horiz-adv-x="2048" />
<glyph unicode=" "  horiz-adv-x="512" />
<glyph unicode="&#x09;" horiz-adv-x="512" />
<glyph unicode="&#xa0;" horiz-adv-x="512" />
<glyph unicode="!" horiz-adv-x="601" d="M177 99q0 49 36 84.5t87 36.5q51 0 87 -36t36 -87t-36 -87t-87 -36t-87 36.5t-36 88.5zM200 304v1061h199v-1061h-199z" />
<glyph unicode="&#x22;" horiz-adv-x="743" d="M97 1365h226l-38 -549h-150zM421 1365h226l-38 -549h-151z" />
<glyph unicode="#" horiz-adv-x="1136" d="M46 420v153h224l31 253h-204v156h224l48 395l155 -20l-46 -375h260l50 395l155 -20l-47 -375h198v-156h-215l-32 -253h197v-156h-217l-52 -424l-155 21l50 403h-262l-53 -424l-158 21l51 406h-202zM427 573h261l31 253h-260z" />
<glyph unicode="$" d="M126 381l195 40q32 -111 70 -160q29 -40 80 -63t107 -23q107 0 173 74q54 61 54 149q0 87 -53.5 140.5t-217.5 128.5q-94 43 -133 66t-73 55q-49 47 -77 114t-28 136q0 127 79 218t223 129v174h154v-174q196 -30 297 -229l-172 -96q-37 66 -70 94q-56 47 -133 47 q-92 0 -143 -61q-37 -43 -37 -99q0 -64 42 -105t163 -96q186 -85 261 -152q57 -51 89 -126.5t32 -156.5q0 -83 -34 -165.5t-93 -141.5q-79 -80 -202 -112v-184h-154v178q-171 28 -263.5 121t-135.5 280z" />
<glyph unicode="%" horiz-adv-x="1659" d="M68 1063q0 131 107 230q90 84 222 86q149 0 247 -112q82 -92 82 -210q0 -138 -107 -235q-93 -86 -225 -86q-147 0 -245 112q-81 92 -81 215zM222 1059q0 -74 51 -125.5t124 -51.5t124 51.5t51 123.5q0 73 -50.5 123.5t-124.5 51.5q-73 0 -124 -51q-51 -52 -51 -122z M390 37l782 1351l96 -54l-781 -1357zM932 313q0 132 107 231q90 85 222 87q149 0 247 -112q82 -93 82 -211q0 -138 -107 -236q-94 -86 -225 -86q-147 0 -245 112q-81 93 -81 215zM1086 311q0 -74 51 -126t124 -52t124 51.5t51 124.5t-50.5 123.5t-124.5 51.5q-73 0 -124 -51 q-51 -53 -51 -122z" />
<glyph unicode="&#x26;" horiz-adv-x="1323" d="M109 377q0 181 159 311q18 15 109 78q20 13 36 26q-135 145 -135 284q0 136 94 229q83 82 233 82q148 0 236 -87q89 -87 89 -210q0 -87 -50 -158.5t-181 -171.5l246 -298q104 117 152 178l134 -138q-37 -53 -161 -190l253 -312h-256l-136 167q-96 -98 -192.5 -146 t-198.5 -48q-206 0 -329 140q-102 116 -102 264zM307 383q0 -44 24 -91.5t64 -81.5q59 -50 135 -50q64 0 128 36t148 120l-270 327q-78 -53 -119 -86q-110 -89 -110 -174zM471 1098q0 -60 48 -118q51 -62 61 -76q103 77 129.5 109.5t26.5 81.5q0 54 -37 87.5t-96 33.5 q-56 0 -94 -34t-38 -84z" />
<glyph unicode="'" horiz-adv-x="419" d="M97 1365h226l-38 -549h-150z" />
<glyph unicode="(" horiz-adv-x="664" d="M164 565q0 294 65 580q43 189 128 364l184 -71q-82 -196 -114 -327q-61 -245 -61 -546t61 -546q32 -131 114 -327l-184 -71q-85 175 -128 363q-65 287 -65 581z" />
<glyph unicode=")" horiz-adv-x="664" d="M123 -308q82 196 114 327q61 244 61 546q0 301 -61 546q-32 131 -114 327l184 71q85 -176 128 -364q65 -286 65 -580t-65 -581q-43 -188 -128 -363z" />
<glyph unicode="*" d="M227 1173l55 169l223 -87l-14 239h178l-14 -239l223 87l55 -169l-231 -61l151 -185l-143 -104l-130 201l-129 -201l-144 104l152 185z" />
<glyph unicode="+" d="M109 628v164h389v382h164v-382h389v-164h-389v-382h-164v382h-389z" />
<glyph unicode="," horiz-adv-x="519" d="M18 -264l209 520l178 -69l-252 -506z" />
<glyph unicode="-" horiz-adv-x="395" d="M0 351v173h395v-173h-395z" />
<glyph unicode="." horiz-adv-x="518" d="M136 99q0 49 36 84.5t87 36.5q51 0 87 -36t36 -87t-36 -87t-87 -36t-87 36.5t-36 88.5z" />
<glyph unicode="/" horiz-adv-x="939" d="M-14 -301l781 1810l164 -73l-782 -1810z" />
<glyph unicode="0" d="M98 692q0 291 127 484q61 93 154 152q92 58 201 60q145 0 270 -113q111 -100 166 -271q46 -144 46 -321q0 -297 -127 -494q-59 -92 -154 -152q-96 -60 -200 -60q-146 0 -272 113q-110 99 -165 271q-46 144 -46 331zM300 690q0 -225 86 -389q72 -136 194 -136t194 136 q86 164 86 383q0 223 -86 382q-72 133 -194 135q-122 0 -194 -135q-86 -163 -86 -376z" />
<glyph unicode="1" d="M277 1172l113 193h329v-1365h-206v1172h-236z" />
<glyph unicode="2" d="M67 0l474 574q80 97 164 212q75 104 75 191q0 106 -81 171q-65 53 -152 53q-123 0 -189 -95q-35 -49 -48 -149h-204q18 154 78 247q122 184 357 184q191 0 318 -123q122 -119 122 -289q0 -111 -59 -218.5t-234 -312.5l-212 -251h508v-194h-917z" />
<glyph unicode="3" d="M99 370h199q13 -81 50 -123q70 -82 188 -82q113 0 180 82q51 63 51 157q0 99 -57 163q-35 38 -79.5 51.5t-139.5 15.5v176q82 0 117 7q67 12 104 68q35 52 35 118q0 89 -59 144q-58 54 -149 54q-107 0 -158 -71q-24 -33 -41 -113h-206q24 139 73 214q104 157 335 157 q191 0 300 -112q106 -109 106 -265q0 -187 -148 -291q169 -100 169 -324q0 -205 -147 -322q-121 -97 -294 -97q-168 0 -284 93q-70 56 -102 122t-43 178z" />
<glyph unicode="4" d="M39 194l876 1273v-1086h144v-187h-144v-194h-206v194h-670zM394 381h315v458z" />
<glyph unicode="5" d="M57 233l156 132q50 -84 86 -119q84 -80 204 -80q141 0 224 107q67 85 67 197q0 134 -93 224q-78 75 -197 75q-76 0 -130.5 -27.5t-108.5 -93.5h-69l215 717h564v-193h-420l-68 -226q30 3 54 3q111 0 196 -39q121 -55 191 -177q67 -120 67 -260q0 -230 -161 -371 q-143 -125 -349 -125q-140 0 -243.5 61.5t-184.5 194.5z" />
<glyph unicode="6" d="M122 422q0 161 134 343l477 649l151 -114l-326 -444q43 7 75 7q150 0 265 -105q142 -130 142 -324q0 -201 -150 -338q-129 -119 -305 -119q-197 0 -336 142q-127 131 -127 303zM323 423q0 -106 76 -182q75 -75 183 -75q107 0 182 75q75 76 75 179q0 111 -75 185 q-76 74 -183 75q-107 0 -182 -75q-76 -75 -76 -182z" />
<glyph unicode="7" d="M109 55l680 1117h-673v193h1018l-862 -1413z" />
<glyph unicode="8" d="M152 388q0 111 48 194.5t137 127.5q-151 106 -151 289q0 168 120 283q111 106 280 106q189 0 303 -133q93 -108 93 -257q0 -176 -149 -287q82 -44 129 -129t47 -191q0 -185 -127 -306q-113 -108 -295 -108q-126 0 -233 59q-101 56 -156 161q-46 88 -46 191zM354 396 q0 -97 66 -164t161 -67q94 0 160 67t66 161t-65.5 160t-161.5 67q-94 0 -160 -66q-66 -68 -66 -158zM380 1000q0 -86 60 -147q59 -60 144 -60t144 60q60 60 60 144q0 85 -59 144t-145 60q-85 0 -144 -60q-60 -60 -60 -141z" />
<glyph unicode="9" d="M122 932q0 201 150 338q129 118 305 118q197 0 336 -142q127 -131 127 -302q0 -161 -134 -344l-477 -648l-151 113l326 445q-43 -7 -75 -7q-150 0 -265 106q-142 129 -142 323zM323 947q0 -109 76 -185q74 -76 182 -76q107 0 183 76q75 75 75 182q0 108 -75 182 q-76 74 -183 75q-108 0 -182 -75q-76 -76 -76 -179z" />
<glyph unicode=":" horiz-adv-x="518" d="M136 99q0 49 36 84.5t87 36.5q51 0 87 -36t36 -87t-36 -87t-87 -36t-87 36.5t-36 88.5zM136 764q0 49 36 84.5t87 36.5q51 0 87 -36t36 -87t-36 -87t-87 -36t-87 36.5t-36 88.5z" />
<glyph unicode=";" horiz-adv-x="518" d="M18 -264l209 520l178 -69l-252 -506zM179 763q0 50 36 85.5t87 36.5q51 0 87 -36t36 -87t-36 -87t-87 -36t-87 36.5t-36 87.5z" />
<glyph unicode="&#x3c;" horiz-adv-x="1024" d="M68 606v174l887 433v-203l-670 -317l670 -318v-202z" />
<glyph unicode="=" d="M109 492v150h942v-150h-942zM109 778v150h942v-150h-942z" />
<glyph unicode="&#x3e;" horiz-adv-x="1024" d="M69 172v204l670 317l-670 317v202l887 -433v-174z" />
<glyph unicode="?" horiz-adv-x="886" d="M108 1059q0 90 40 161q42 76 120.5 120t171.5 44q149 0 249 -102q88 -90 88 -226q0 -102 -55 -183q-37 -55 -92.5 -87t-179.5 -70q-62 -19 -88.5 -44.5t-26.5 -66.5q0 -44 30.5 -74t74.5 -30q51 0 76 32.5t29 104.5h201q-6 -124 -54 -193q-40 -58 -111 -94.5t-145 -36.5 q-130 0 -219 95q-81 86 -81 212q0 102 54.5 164t185.5 110q117 42 151 65q49 34 49 102q0 59 -37 95.5t-98 36.5q-60 0 -96.5 -36t-36.5 -96q0 -27 10 -75h-205q-5 46 -5 72zM321 99q0 49 36 84.5t87 36.5q51 0 87 -36t36 -87t-36 -87t-87 -36t-87 36.5t-36 88.5z" />
<glyph unicode="@" horiz-adv-x="1594" d="M96 683q0 197 98 360q92 154 252 246q175 100 383 100q200 0 370 -96q138 -78 218 -211q82 -137 82 -302q0 -160 -76 -300q-63 -115 -155 -161q-60 -31 -120 -31q-113 0 -154 108q-60 -62 -114.5 -87t-127.5 -25q-148 0 -243 105q-96 106 -96 267q0 185 120 300 q105 101 256 101q149 0 240 -116l12 99h134l-56 -464q-6 -50 -6 -93q0 -66 55 -66q30 0 55 17q56 36 89 100q57 109 57 235q0 226 -158 363q-155 134 -381 134q-247 0 -415 -170q-165 -168 -165 -411q0 -229 146 -392q164 -184 452 -184q125 0 219 23.5t228 88.5l46 -127 q-241 -118 -491 -118q-235 0 -405 96q-156 89 -249 245q-100 167 -100 366zM595 648q0 -92 47 -152q46 -59 118 -59q96 0 165 79q70 80 70 183q0 83 -55 137t-141 55q-88 0 -146 -68t-58 -175z" />
<glyph unicode="A" horiz-adv-x="1341" d="M7 0l676 1452l651 -1452h-225l-144 332h-584l-152 -332h-222zM467 526h415l-203 464z" />
<glyph unicode="B" horiz-adv-x="1070" d="M164 0v1365h205q122 0 197.5 -16t130.5 -54q74 -50 117 -144q38 -81 38 -167q0 -148 -112 -249q74 -26 125 -74q110 -106 110 -270q0 -179 -137 -293q-67 -55 -145.5 -76.5t-216.5 -21.5h-312zM370 194h128q126 0 189 43q38 25 61.5 69.5t23.5 91.5t-23 92t-61 71 q-66 45 -214 45h-104v-412zM370 779h64q116 0 165 48q58 58 58 153q0 93 -57 148q-49 48 -158 48h-72v-397z" />
<glyph unicode="C" horiz-adv-x="1268" d="M96 676q0 175 83 333q98 184 273 286q166 96 365 96q185 0 356 -100v-244q-91 77 -163 107q-102 43 -206 43q-141 0 -258 -73q-124 -76 -189 -211q-53 -109 -53 -235q0 -234 166 -382q144 -128 334 -128q101 0 185 35.5t184 119.5v-248q-177 -101 -371 -101 q-184 0 -341 86q-189 104 -289 299q-76 149 -76 317z" />
<glyph unicode="D" horiz-adv-x="1315" d="M164 0v1365h287q219 0 345 -47q224 -83 339 -290q84 -152 84 -345q0 -355 -273 -552q-104 -75 -211 -103t-288 -28h-283zM370 194h93q124 0 207.5 22.5t154.5 75.5q91 68 140 173q46 99 46 217q0 168 -91 297q-72 101 -180.5 146.5t-276.5 45.5h-93v-977z" />
<glyph unicode="E" horiz-adv-x="1024" d="M164 0v1365h754v-194h-548v-327h531v-194h-531v-456h548v-194h-754z" />
<glyph unicode="F" horiz-adv-x="920" d="M164 0v1365h681v-194h-475v-327h459v-194h-459v-650h-206z" />
<glyph unicode="G" horiz-adv-x="1526" d="M96 680q0 211 111 385q103 160 275 248q154 78 328 78q229 0 409 -132q67 -49 151 -145l-147 -141q-170 224 -410 224q-220 0 -372 -158q-138 -143 -138 -359q0 -229 163 -375q153 -137 332 -137q154 0 274 102.5t135 246.5h-341v194h564q0 -153 -14.5 -235.5 t-55.5 -161.5q-74 -143 -208 -232q-162 -108 -361 -108q-173 0 -326 83q-195 107 -295 306q-74 148 -74 317z" />
<glyph unicode="H" horiz-adv-x="1328" d="M164 0v1365h206v-534h589v534h206v-1365h-206v637h-589v-637h-206z" />
<glyph unicode="I" horiz-adv-x="534" d="M164 0v1365h206v-1365h-206z" />
<glyph unicode="J" horiz-adv-x="743" d="M-34 43l102 175q74 -50 140 -50q109 0 144 103q21 60 21 211v883h206v-883q0 -161 -24 -244q-38 -126 -128 -195t-219 -69q-127 0 -242 69z" />
<glyph unicode="K" horiz-adv-x="1200" d="M164 0v1365h206v-545l531 545h275l-616 -618l620 -747h-276l-491 607l-43 -42v-565h-206z" />
<glyph unicode="L" horiz-adv-x="803" d="M164 0v1365h206v-1171h402v-194h-608z" />
<glyph unicode="M" horiz-adv-x="1741" d="M116 0l287 1468l469 -1061l485 1061l258 -1468h-211l-131 824l-404 -888l-394 889l-146 -825h-213z" />
<glyph unicode="N" horiz-adv-x="1529" d="M164 0v1458l995 -1041v948h206v-1449l-995 1040v-956h-206z" />
<glyph unicode="O" horiz-adv-x="1618" d="M96 688q0 292 218 501q204 197 499 202q310 0 522 -232q188 -204 188 -478q0 -188 -95 -352q-94 -162 -257 -257q-168 -98 -368 -98q-177 0 -339 88q-195 106 -291 290q-77 149 -77 336zM304 686q0 -227 152 -373q151 -145 349 -145q142 0 263 72q124 74 188 197 q59 112 59 245q0 215 -145 367q-139 144 -359 148q-240 0 -388 -180q-119 -145 -119 -331z" />
<glyph unicode="P" horiz-adv-x="978" d="M164 0v1365h233q189 0 270 -27q148 -49 218 -189q45 -89 45 -189q0 -176 -119 -290q-121 -116 -345 -116h-96v-554h-206zM370 745h77q148 0 214 55q70 59 70 163q0 108 -77 163q-68 49 -216 49h-68v-430z" />
<glyph unicode="Q" horiz-adv-x="1618" d="M96 677q0 308 217 514q114 108 264 160q114 40 232 40q176 0 335 -85q183 -98 284 -273q95 -166 95 -366q0 -141 -46 -252.5t-149 -218.5l225 -222h-259l-107 111q-173 -111 -380 -111q-182 0 -347 91q-192 105 -287 288q-77 146 -77 324zM304 675q0 -221 147 -361 q152 -146 349 -146q132 0 241 61l-320 312h265l199 -198q57 60 83 115q47 98 47 222q0 224 -149 371q-148 146 -359 146q-154 0 -279 -82q-105 -68 -163 -178q-61 -115 -61 -262z" />
<glyph unicode="R" horiz-adv-x="1090" d="M164 0v1365h241q132 0 214 -18t146 -61q76 -51 121 -141q42 -85 42 -181q0 -143 -83 -248t-219 -134l423 -582h-252l-390 559h-37v-559h-206zM370 739h66q136 0 205 49q86 60 86 174q0 106 -80 162q-68 47 -204 47h-73v-432z" />
<glyph unicode="S" horiz-adv-x="1055" d="M96 377l208 46q13 -104 39 -150q27 -48 80.5 -76.5t116.5 -28.5q104 0 168 74q56 64 56 154q0 115 -95 179q-34 23 -63 36.5t-169 72.5q-280 118 -280 346q0 183 156 286q114 75 254 75q123 0 211.5 -55t157.5 -174l-167 -99q-37 61 -65 86q-52 48 -138 48 q-90 0 -146 -51q-54 -49 -54 -119q0 -68 65 -113q30 -22 57.5 -34.5t162.5 -67.5q171 -70 244 -166q76 -100 76 -236q0 -197 -139 -325q-120 -111 -300 -111q-231 0 -357 182q-59 86 -79 221z" />
<glyph unicode="T" horiz-adv-x="874" d="M20 1171v194h833v-194h-313v-1171h-206v1171h-314z" />
<glyph unicode="U" horiz-adv-x="1338" d="M164 487v878h206v-822q0 -91 9.5 -142t33.5 -93q33 -57 92 -94q74 -46 164 -46q81 0 150 38t106 102q24 42 33.5 93t9.5 142v822h206v-878q0 -191 -104 -321q-71 -91 -178 -141q-106 -51 -223 -51q-166 0 -302 97q-203 145 -203 416z" />
<glyph unicode="V" horiz-adv-x="1225" d="M7 1365h225l378 -946l383 946h225l-612 -1468z" />
<glyph unicode="W" horiz-adv-x="1921" d="M7 1365h223l356 -912l372 978l355 -979l378 913h223l-610 -1453l-351 968l-366 -968z" />
<glyph unicode="X" horiz-adv-x="1118" d="M20 0l429 714l-376 651h234l261 -463l274 463h236l-393 -652l413 -713h-231l-302 522l-312 -522h-233z" />
<glyph unicode="Y" horiz-adv-x="1087" d="M-7 1365h238l312 -546l313 546h237l-447 -775v-590h-206v590z" />
<glyph unicode="Z" horiz-adv-x="1132" d="M61 0l670 1171h-561v194h900l-671 -1171h656v-194h-994z" />
<glyph unicode="[" horiz-adv-x="647" d="M177 -363v1857h374v-187h-172v-1483h172v-187h-374z" />
<glyph unicode="\" horiz-adv-x="939" d="M7 1436l164 73l781 -1810l-163 -73z" />
<glyph unicode="]" horiz-adv-x="647" d="M96 -176h172v1483h-172v187h374v-1857h-374v187z" />
<glyph unicode="^" horiz-adv-x="1024" d="M32 718l346 653h269l346 -653h-217l-264 490l-263 -490h-217z" />
<glyph unicode="_" horiz-adv-x="1024" d="M0 -115h1024v-186h-1024v186z" />
<glyph unicode="`" horiz-adv-x="1024" d="M174 1285l187 98l243 -323l-109 -66z" />
<glyph unicode="a" horiz-adv-x="1085" d="M85 433q0 210 129 337q118 115 277 115q82 0 143 -28t127 -95v100h199v-862h-199v91q-68 -65 -127 -91t-137 -26q-189 0 -309 145q-103 124 -103 314zM288 433q0 -135 81 -217q63 -63 157 -63q120 0 190 89q57 73 57 187q0 132 -76 208q-67 67 -169 69q-110 0 -176 -84 q-64 -80 -64 -189z" />
<glyph unicode="b" horiz-adv-x="1085" d="M126 0v1494h199v-732q120 123 271 123q103 0 194 -53q117 -68 169 -188q42 -98 42 -211q0 -220 -135 -349q-116 -110 -274 -110q-148 0 -267 117v-91h-199zM313 430q0 -134 76 -209q69 -68 169 -68q110 0 176 83q64 80 64 188q0 134 -81 218q-60 61 -157 64 q-118 0 -190 -90q-57 -72 -57 -186z" />
<glyph unicode="c" horiz-adv-x="863" d="M84 427q0 119 61 226q59 105 158 165q111 67 252 67q128 0 241 -60v-265q-69 83 -122 114.5t-126 31.5q-119 0 -193 -87q-67 -77 -67 -189q0 -118 73 -199q68 -78 184 -78q73 0 126 31t125 117v-263q-120 -64 -243 -64q-216 0 -349 146q-120 133 -120 307z" />
<glyph unicode="d" horiz-adv-x="1085" d="M85 433q0 210 129 337q118 115 277 115q150 0 270 -123v732h199v-1494h-199v91q-119 -117 -267 -117q-186 0 -306 145q-103 124 -103 314zM288 434q0 -136 81 -218q63 -63 157 -63q120 0 190 89q57 72 57 187q0 132 -76 208q-67 67 -169 69q-110 0 -176 -84 q-64 -80 -64 -188z" />
<glyph unicode="e" horiz-adv-x="1002" d="M85 430q0 105 33 195t92 148q114 112 290 112q148 0 259 -82q152 -114 152 -372q0 -14 -1 -47h-617q5 -63 30 -112q60 -119 195 -119q74 0 123.5 35.5t108.5 131.5l168 -94q-59 -99 -115 -148q-121 -104 -292 -104q-209 0 -332 150q-94 115 -94 306zM306 546h400 q-14 55 -40 87q-58 73 -161 73q-73 0 -126.5 -43.5t-72.5 -116.5z" />
<glyph unicode="f" horiz-adv-x="538" d="M61 676v186h71v331q0 161 57 230q35 43 96.5 68.5t129.5 25.5q60 0 133 -31v-203q-85 43 -127 43q-53 0 -71.5 -37.5t-18.5 -143.5v-283h217v-186h-217v-676h-199v676h-71z" />
<glyph unicode="g" horiz-adv-x="1084" d="M86 425q0 222 132 349q116 111 272 111q163 0 270 -121v98h199v-842q0 -126 -16 -195t-58 -131q-57 -82 -149 -124q-92 -41 -196 -41q-205 0 -318 127q-100 113 -101 292h196q5 -96 32 -141q26 -45 79 -72t114 -27q56 0 104.5 23.5t75.5 63.5q38 58 38 180v121 q-118 -122 -273 -122q-97 0 -184 48q-217 119 -217 403zM289 428q0 -135 72 -205q71 -70 166 -70q117 0 186 90q55 72 55 186q0 145 -86 219q-63 56 -156 58q-122 0 -188 -97q-49 -73 -49 -181z" />
<glyph unicode="h" horiz-adv-x="993" d="M126 0v1494h199v-704q105 95 234 95q78 0 145 -31.5t106 -85.5q32 -43 44.5 -97t12.5 -143v-528h-199v509q0 89 -26 135q-35 62 -129 62q-57 0 -101 -24t-61 -66q-26 -61 -26 -200v-416h-199z" />
<glyph unicode="i" horiz-adv-x="451" d="M96 1219q0 52 38 89.5t91 38.5q54 0 92 -37.5t38 -91.5t-38 -92t-91 -38q-54 0 -92 38.5t-38 92.5zM126 0v862h199v-862h-199z" />
<glyph unicode="j" horiz-adv-x="451" d="M96 1219q0 53 38 90t91 38q54 0 92 -37.5t38 -91.5t-38 -92t-91 -38q-54 0 -92 38.5t-38 92.5zM126 -470v1332h199v-1332h-199z" />
<glyph unicode="k" horiz-adv-x="902" d="M126 0v1494h199v-911l280 279h267l-374 -362l401 -500h-258l-285 363l-31 -31v-332h-199z" />
<glyph unicode="l" horiz-adv-x="451" d="M126 0v1494h199v-1494h-199z" />
<glyph unicode="m" horiz-adv-x="1432" d="M126 0v862h199v-80q55 60 98 81.5t109 21.5q145 0 230 -127q94 127 254 127q111 0 191 -64q100 -82 100 -288v-533h-199v479q0 123 -30 175t-102 52q-83 0 -120.5 -62t-37.5 -199v-445h-199v476q0 95 -21 152q-29 78 -113 78q-41 0 -77.5 -22t-53.5 -56q-29 -57 -29 -183 v-445h-199z" />
<glyph unicode="n" horiz-adv-x="993" d="M126 0v862h199v-80q58 58 110 80.5t126 22.5q81 0 148.5 -31.5t104.5 -85.5q54 -79 54 -240v-528h-199v482q0 118 -26 162q-38 62 -135 62q-101 0 -142 -65.5t-41 -224.5v-416h-199z" />
<glyph unicode="o" horiz-adv-x="1088" d="M85 437q0 191 146 328q123 117 313 120q214 0 348 -155q112 -129 112 -300q0 -201 -146 -336q-128 -120 -318 -120q-210 0 -344 156q-111 129 -111 307zM288 433q0 -136 76 -211q70 -69 180 -69q130 0 201 92q56 72 56 184q0 132 -76 207q-67 68 -181 70q-130 0 -201 -94 q-55 -74 -55 -179z" />
<glyph unicode="p" horiz-adv-x="1085" d="M126 -470v1332h199v-94q118 117 267 117q186 0 306 -145q103 -124 103 -314q0 -210 -130 -337q-117 -115 -275 -115q-152 0 -271 123v-567h-199zM313 430q0 -133 76 -208q69 -69 169 -69q110 0 176 83q64 81 64 189q0 135 -81 218q-60 60 -157 63q-118 0 -190 -89 q-57 -72 -57 -187z" />
<glyph unicode="q" horiz-adv-x="1085" d="M85 426q0 220 135 349q116 110 274 110q149 0 267 -117v94h199v-1332h-199v567q-119 -123 -271 -123q-103 0 -194 53q-117 68 -169 188q-42 98 -42 211zM288 435q0 -136 81 -218q63 -64 157 -64q120 0 190 90q57 72 57 186q0 133 -76 209q-66 66 -169 68q-110 0 -176 -83 q-64 -80 -64 -188z" />
<glyph unicode="r" horiz-adv-x="678" d="M126 0v862h199v-77q55 58 97.5 79.5t102.5 21.5q78 0 164 -52l-92 -182q-57 41 -109 41q-84 0 -123.5 -60t-39.5 -187v-446h-199z" />
<glyph unicode="s" horiz-adv-x="735" d="M67 187l169 78q36 -65 65.5 -88.5t75.5 -23.5t73.5 25t27.5 67t-29 65t-170 93q-95 46 -131 94.5t-36 128.5q0 120 82 190q80 69 186 69q85 0 144.5 -41t101.5 -129l-165 -88q-38 79 -96 79q-27 0 -46.5 -18t-19.5 -44q0 -27 22.5 -46t92.5 -52q111 -51 164 -88 q103 -71 103 -194q0 -122 -91 -207q-88 -83 -216 -83q-217 0 -307 213z" />
<glyph unicode="t" horiz-adv-x="495" d="M47 676v186h85v315h199v-315h154v-186h-154v-676h-199v676h-85z" />
<glyph unicode="u" horiz-adv-x="987" d="M126 363v499h199v-495q0 -92 25 -137q42 -77 144 -77q87 0 128 52t41 162v495h199v-499q0 -102 -20.5 -164.5t-70.5 -115.5q-104 -109 -277 -109t-277 109q-51 53 -71 115.5t-20 164.5z" />
<glyph unicode="v" horiz-adv-x="910" d="M10 862h223l223 -484l222 484h223l-447 -922z" />
<glyph unicode="w" horiz-adv-x="1402" d="M10 862h224l225 -492l243 570l245 -570l223 492h223l-451 -927l-240 555l-242 -555z" />
<glyph unicode="x" horiz-adv-x="1011" d="M10 0l382 467l-309 395h237l192 -252l196 252h243l-318 -396l369 -466h-237l-253 322l-259 -322h-243z" />
<glyph unicode="y" horiz-adv-x="984" d="M10 862h231l263 -496l246 496h225l-686 -1332h-227l335 630z" />
<glyph unicode="z" horiz-adv-x="984" d="M16 0l558 676h-439v186h833l-557 -675h512v-187h-907z" />
<glyph unicode="{" horiz-adv-x="647" d="M84 486v170q62 15 88.5 54t26.5 115v395q0 151 56.5 219.5t180.5 68.5q14 0 68 -2q17 0 51 -1v-178h-25q-94 0 -116 -54q-11 -27 -11 -106v-355q0 -102 -25.5 -153.5t-98.5 -94.5q55 -33 81 -71q44 -65 43 -125v-402q0 -104 22 -130q28 -34 105 -34h25v-178 q-38 -1 -50 -2q-58 -2 -62 -2q-128 0 -185 68q-59 69 -59 232v436q-11 111 -115 130z" />
<glyph unicode="|" horiz-adv-x="1024" d="M410 -341v1706h205v-1706h-205z" />
<glyph unicode="}" horiz-adv-x="647" d="M93 -198h25q94 0 116 54q11 27 11 106v355q0 102 26 153.5t98 94.5q-55 33 -81 71q-44 65 -43 125v402q0 105 -22 131q-29 34 -105 34q-5 0 -25 -1v178q38 1 50 2q58 2 62 2q128 0 186 -68t58 -232v-436q11 -111 115 -130v-170q-62 -15 -88.5 -54t-26.5 -115v-395 q0 -151 -56.5 -219.5t-180.5 -68.5q-14 0 -68 2q-17 0 -51 1v178z" />
<glyph unicode="~" horiz-adv-x="1365" d="M187 1246q63 133 119 191q65 68 173 68q84 0 224 -62q128 -56 188 -56q45 0 85 22q10 6 71 81q20 25 36 25q41 0 94 -76q-59 -119 -118 -176q-33 -33 -85 -53.5t-102 -20.5q-79 0 -230 69q-108 50 -180 50q-34 0 -75 -24q-11 -7 -73 -94q-17 -23 -35 -23q-40 0 -92 79z " />
<glyph horiz-adv-x="874" d="M20 1171v194h833v-194h-313v-1171h-206v1171h-314zM124 1772l136 105l178 -167l176 167l135 -105l-311 -284z" />
<glyph horiz-adv-x="1132" d="M61 0l670 1171h-561v194h900l-671 -1171h656v-194h-994zM294 1772l136 105l178 -167l176 167l135 -105l-311 -284z" />
<glyph horiz-adv-x="1132" d="M61 0l670 1171h-561v194h900l-671 -1171h656v-194h-994zM459 1570l283 285l175 -123l-360 -244z" />
<glyph horiz-adv-x="714" d="M47 676v186h85v315h199v-315h154v-186h-154v-676h-199v676h-85zM429 1009l133 331l152 -60l-166 -320z" />
<glyph horiz-adv-x="984" d="M16 0l558 676h-439v186h833l-557 -675h512v-187h-907zM220 1277l136 105l178 -167l176 168l135 -106l-311 -283z" />
<glyph unicode="&#xa1;" horiz-adv-x="1024" d="M200 1277l136 105l178 -167l176 168l135 -106l-311 -283z" />
<glyph unicode="&#xa2;" horiz-adv-x="1024" d="M195 1293h164q20 -139 153 -139q134 0 154 139h163q-11 -113 -62 -179q-91 -117 -259 -117q-160 0 -251 117q-53 69 -62 179z" />
<glyph unicode="&#xa3;" d="M54 59q72 122 131 168.5t151 55.5q20 72 20 127q0 61 -30 118h-233v145h160q-86 173 -86 291q0 189 150 315q129 109 306 109q193 0 309.5 -119t125.5 -324l-202 -75q-3 98 -8.5 136t-21.5 71q-58 117 -204 117q-106 0 -175 -69.5t-69 -176.5q0 -51 22 -109.5t81 -165.5 h266v-145h-207q23 -82 23 -125q0 -48 -26 -141q79 -27 108 -38q116 -42 157 -42q39 0 67.5 26.5t72.5 102.5l165 -99q-45 -94 -86 -138q-86 -93 -217 -93q-81 0 -226 53q-156 56 -207 56q-50 0 -76.5 -23t-63.5 -98z" />
<glyph unicode="&#xa4;" horiz-adv-x="1366" d="M76 1243l113 113l203 -203q144 98 292 98t287 -96l202 200l112 -113l-200 -200q98 -145 98 -288q0 -145 -96 -285l203 -203l-112 -113l-202 203q-137 -99 -291 -99q-143 0 -292 97l-202 -201l-112 113l202 201q-98 133 -98 288q0 147 97 284zM371 754q0 -140 104 -233 q89 -81 208 -81q138 0 232 103q81 88 81 206q0 135 -89 224q-92 93 -224 95q-137 0 -231 -104q-81 -89 -81 -210z" />
<glyph unicode="&#xa5;" horiz-adv-x="1341" d="M7 0l676 1452l651 -1452q-88 -74 -116 -111t-28 -78q0 -29 19 -46.5t51 -17.5q50 0 140 48l-30 -165q-62 -41 -151 -41q-97 0 -153 52q-58 52 -58 126q0 113 161 233h-60l-144 332h-584l-152 -332h-222zM467 526h415l-203 464z" />
<glyph unicode="&#xa6;" horiz-adv-x="1024" d="M410 314h205v-655h-205v655zM410 670v695h205v-695h-205z" />
<glyph unicode="&#xa7;" d="M169 17h194q25 -210 204 -210q96 0 143 59q39 49 39 126q0 95 -70 143q-42 29 -171 79q-147 58 -211 106q-110 86 -110 250q0 224 193 309q-159 96 -159 265q0 167 135 276q111 89 255 89q151 0 257 -99q114 -107 123 -317h-189q-5 76 -22 120q-42 105 -168 105 q-94 0 -150 -62q-44 -50 -44 -124q0 -79 62 -121q28 -19 49.5 -28.5t123.5 -45.5q152 -54 224 -107q114 -83 114 -256q0 -106 -44 -178t-149 -137q82 -54 116.5 -116t34.5 -154q0 -168 -118 -275q-107 -97 -268 -97q-167 0 -278 102q-57 52 -83.5 120.5t-32.5 177.5z M382 574q0 -84 61 -144q59 -59 146 -59q85 0 146 59q60 59 60 142t-60 141t-147 59q-86 0 -145 -59q-61 -59 -61 -139z" />
<glyph unicode="&#xa8;" horiz-adv-x="1024" d="M201 1136q0 51 37 87.5t90 37.5q52 0 89 -37t37 -89q0 -53 -37 -90t-89 -37q-53 0 -90 37.5t-37 90.5zM571 1136q0 51 37 87.5t89 37.5q53 0 90 -37t37 -89q0 -53 -37 -90t-89 -37q-53 0 -90 37.5t-37 90.5z" />
<glyph unicode="&#xa9;" horiz-adv-x="1553" d="M68 685q0 201 107 373q105 169 284 259q152 77 310 76q197 0 362 -94q162 -93 258 -262q95 -166 95 -353q0 -193 -95 -358t-260 -260q-163 -94 -352 -94t-354 95q-164 95 -259 260q-96 165 -96 358zM182 685q0 -168 83 -311q81 -140 219 -220q137 -79 292 -79 q156 0 291 78q139 80 220 220q82 143 82 311q0 162 -82 306q-81 142 -218 222q-135 78 -290 78h-7q-159 0 -301 -87q-145 -88 -223 -242q-66 -131 -66 -276zM367 680q0 185 142 313q126 114 307 114q116 0 233 -63v-178q-53 41 -69 52q-79 49 -173 49q-136 0 -220 -103 q-64 -80 -64 -184q0 -130 94 -211q82 -71 191 -71q65 0 113.5 21t127.5 83v-180q-117 -64 -242 -64q-189 0 -317 128q-123 123 -123 294z" />
<glyph unicode="&#xaa;" horiz-adv-x="1055" d="M96 377l208 46q13 -104 39 -150q27 -48 80.5 -76.5t116.5 -28.5q104 0 168 74q56 64 56 154q0 115 -95 179q-34 23 -63 36.5t-169 72.5q-280 118 -280 346q0 183 156 286q114 75 254 75q123 0 211.5 -55t157.5 -174l-167 -99q-37 61 -65 86q-52 48 -138 48 q-90 0 -146 -51q-54 -49 -54 -119q0 -68 65 -113q30 -22 57.5 -34.5t162.5 -67.5q171 -70 244 -166q76 -100 76 -236q0 -197 -139 -325q-120 -111 -300 -111q-231 0 -357 182q-59 86 -79 221zM348 -392l186 283l175 -79l-232 -272z" />
<glyph unicode="&#xab;" horiz-adv-x="1042" d="M82 437l340 451l132 -97l-264 -353l265 -339l-132 -98zM461 437l340 451l132 -97l-265 -353l265 -339l-132 -98z" />
<glyph unicode="&#xac;" horiz-adv-x="1024" d="M68 355v191h887v-546h-205v355h-682z" />
<glyph unicode="&#xad;" horiz-adv-x="395" d="M0 351v173h395v-173h-395z" />
<glyph unicode="&#xae;" horiz-adv-x="1553" d="M68 685q0 201 107 373q105 169 284 259q152 77 310 76q197 0 362 -94q162 -93 258 -262q95 -166 95 -353q0 -193 -95 -358t-260 -260q-163 -94 -352 -94t-354 95q-164 95 -259 260q-96 165 -96 358zM182 685q0 -168 83 -311q81 -140 219 -220q137 -79 292 -79 q156 0 291 78q139 80 220 220q82 143 82 311q0 162 -82 306q-81 142 -218 222q-135 78 -290 78h-7q-159 0 -301 -87q-145 -88 -223 -242q-66 -131 -66 -276zM522 273v819h164q152 0 230 -48q49 -30 78.5 -84t29.5 -114q0 -78 -47 -142t-120 -85l-10 -3l265 -343h-191 l-243 324v-324h-156zM677 729h27q168 0 168 115q0 108 -163 108h-32v-223z" />
<glyph unicode="&#xaf;" horiz-adv-x="1132" d="M61 0l670 1171h-561v194h900l-671 -1171h656v-194h-994zM466 1637q0 54 39 92.5t94 39.5q56 0 95 -39t39 -94q0 -56 -39 -95t-94 -39q-56 0 -95 39.5t-39 95.5z" />
<glyph unicode="&#xb0;" d="M307 1112q0 116 80 193q83 80 197 80q108 0 189 -80q80 -78 80 -192t-80 -193q-80 -80 -193 -80t-193 80q-80 79 -80 192zM437 1111q0 -61 42.5 -104.5t100.5 -43.5q59 0 101 43.5t42 104.5q0 58 -40.5 97.5t-100.5 40.5q-61 0 -103 -40t-42 -98z" />
<glyph unicode="&#xb1;" d="M109 0v164h942v-164h-942zM109 628v164h389v382h164v-382h389v-164h-389v-355h-164v355h-389z" />
<glyph unicode="&#xb2;" horiz-adv-x="1024" d="M352 -223q0 66 35 116t122 107h149q-149 -101 -149 -173q0 -63 78 -63q50 0 112 15l-18 -128q-62 -37 -132 -37q-90 0 -148 53q-49 46 -49 110z" />
<glyph unicode="&#xb3;" horiz-adv-x="541" d="M41 478v198l130 90v728h199v-629l130 91v-198l-130 -90v-668h-199v568z" />
<glyph unicode="&#xb4;" horiz-adv-x="1024" d="M420 1060l243 323l187 -98l-321 -291z" />
<glyph unicode="&#xb5;" horiz-adv-x="987" d="M126 -470v1332h199v-499q0 -210 169 -210q87 0 128 52t41 162v495h199v-499q0 -102 -20.5 -164.5t-70.5 -115.5q-104 -109 -271 -109q-102 0 -189 46l14 -490h-199z" />
<glyph unicode="&#xb6;" d="M55 1018q0 95 37 171.5t104 118.5q89 57 259 57h633l-113 -191h-54v-1369h-189v1369h-152v-1369h-189v880q-17 -1 -23 -1q-155 0 -243 111q-70 89 -70 223z" />
<glyph unicode="&#xb7;" horiz-adv-x="519" d="M137 439q0 49 36 84.5t87 36.5q51 0 87 -36t36 -87t-36 -87t-87 -36t-87 36.5t-36 88.5z" />
<glyph unicode="&#xb8;" horiz-adv-x="1024" d="M356 -383l176 274l164 -68l-211 -271z" />
<glyph unicode="&#xb9;" horiz-adv-x="1085" d="M85 433q0 210 129 337q118 115 277 115q82 0 143.5 -28t126.5 -96v101h199v-862q-149 -101 -149 -173q0 -63 78 -63q50 0 112 15l-18 -128q-63 -37 -132 -37q-90 0 -148 53q-49 46 -49 110q0 66 35 116t122 107h-50v91q-68 -65 -127 -91t-137 -26q-189 0 -309 145 q-103 124 -103 314zM288 433q0 -135 81 -217q63 -63 157 -63q120 0 190 89q57 73 57 187q0 132 -76 208q-67 67 -169 69q-110 0 -176 -84q-64 -80 -64 -189z" />
<glyph unicode="&#xba;" horiz-adv-x="735" d="M67 187l169 78q36 -65 65.5 -88.5t75.5 -23.5t73.5 25t27.5 67t-29 65t-170 93q-95 46 -131 94.5t-36 128.5q0 120 82 190q80 69 186 69q85 0 144.5 -41t101.5 -129l-165 -88q-38 79 -96 79q-27 0 -46.5 -18t-19.5 -44q0 -27 22.5 -46t92.5 -52q111 -51 164 -88 q103 -71 103 -194q0 -122 -91 -207q-88 -83 -216 -83q-217 0 -307 213zM143 -383l176 274l164 -68l-211 -271z" />
<glyph unicode="&#xbb;" horiz-adv-x="1042" d="M109 99l265 339l-265 353l132 97l341 -451l-341 -436zM488 99l265 339l-265 353l132 97l340 -451l-340 -436z" />
<glyph unicode="&#xbc;" horiz-adv-x="803" d="M164 0v1365h206v-1171h402v-194h-608zM497 1038l133 334l155 -59l-166 -323z" />
<glyph unicode="&#xbd;" horiz-adv-x="1024" d="M259 1060l215 323l168 -98l-295 -291zM628 1060l215 323l168 -98l-296 -291z" />
<glyph unicode="&#xbe;" horiz-adv-x="706" d="M126 0v1494h199v-1494h-199zM421 1163l133 331l152 -60l-166 -320z" />
<glyph unicode="&#xbf;" horiz-adv-x="984" d="M16 0l558 676h-439v186h833l-557 -675h512v-187h-907zM399 1143q0 53 39 91.5t94 39.5q55 0 94 -39t39 -94t-39 -94t-94 -39t-94 39.5t-39 95.5z" />
<glyph unicode="&#xc0;" horiz-adv-x="1090" d="M164 0v1365h241q132 0 214 -18t146 -61q76 -51 121 -141q42 -85 42 -181q0 -143 -83 -248t-219 -134l423 -582h-252l-390 559h-37v-559h-206zM357 1570l283 285l175 -123l-360 -244zM370 739h66q136 0 205 49q86 60 86 174q0 106 -80 162q-68 47 -204 47h-73v-432z" />
<glyph unicode="&#xc1;" horiz-adv-x="1341" d="M7 0l676 1452l651 -1452h-225l-144 332h-584l-152 -332h-222zM467 526h415l-203 464zM537 1570l283 285l175 -123l-360 -244z" />
<glyph unicode="&#xc2;" horiz-adv-x="1341" d="M7 0l676 1452l651 -1452h-225l-144 332h-584l-152 -332h-222zM372 1594l310 283l315 -283l-136 -106l-178 168l-176 -168zM467 526h415l-203 464z" />
<glyph unicode="&#xc3;" horiz-adv-x="1341" d="M7 0l676 1452l651 -1452h-225l-144 332h-584l-152 -332h-222zM354 1791h164q20 -139 153 -139q134 0 154 139h163q-11 -113 -62 -179q-91 -117 -259 -117q-160 0 -251 117q-53 69 -62 179zM467 526h415l-203 464z" />
<glyph unicode="&#xc4;" horiz-adv-x="1341" d="M7 0l676 1452l651 -1452h-225l-144 332h-584l-152 -332h-222zM359 1630q0 51 37 87.5t90 37.5q52 0 89 -37t37 -89q0 -53 -37 -90t-89 -37q-53 0 -90 37.5t-37 90.5zM467 526h415l-203 464zM756 1630q0 51 37 87.5t89 37.5q53 0 90 -37t37 -89q0 -53 -37 -90t-89 -37 q-53 0 -90 37.5t-37 90.5z" />
<glyph unicode="&#xc5;" horiz-adv-x="803" d="M164 0v1365h206v-1171h402v-194h-608zM172 1570l283 285l175 -123l-360 -244z" />
<glyph unicode="&#xc6;" horiz-adv-x="1268" d="M96 676q0 175 83 333q98 184 273 286q166 96 365 96q185 0 356 -100v-244q-91 77 -163 107q-102 43 -206 43q-141 0 -258 -73q-124 -76 -189 -211q-53 -109 -53 -235q0 -234 166 -382q144 -128 334 -128q101 0 185 35.5t184 119.5v-248q-177 -101 -371 -101 q-184 0 -341 86q-189 104 -289 299q-76 149 -76 317zM624 1570l283 285l175 -123l-360 -244z" />
<glyph unicode="&#xc7;" horiz-adv-x="1268" d="M96 676q0 175 83 333q98 184 273 286q166 96 365 96q185 0 356 -100v-244q-91 77 -163 107q-102 43 -206 43q-141 0 -258 -73q-124 -76 -189 -211q-53 -109 -53 -235q0 -234 166 -382q144 -128 334 -128q101 0 185 35.5t184 119.5v-248q-177 -101 -371 -101 q-184 0 -341 86q-189 104 -289 299q-76 149 -76 317zM532 -392l186 283l175 -79l-232 -272z" />
<glyph unicode="&#xc8;" horiz-adv-x="1268" d="M96 676q0 175 83 333q98 184 273 286q166 96 365 96q185 0 356 -100v-244q-91 77 -163 107q-102 43 -206 43q-141 0 -258 -73q-124 -76 -189 -211q-53 -109 -53 -235q0 -234 166 -382q144 -128 334 -128q101 0 185 35.5t184 119.5v-248q-177 -101 -371 -101 q-184 0 -341 86q-189 104 -289 299q-76 149 -76 317zM472 1772l136 105l178 -167l176 167l135 -105l-311 -284z" />
<glyph unicode="&#xc9;" horiz-adv-x="1024" d="M164 0v1365h754v-194h-548v-327h531v-194h-531v-456h548v-194h-754zM392 1570l283 285l175 -123l-360 -244z" />
<glyph unicode="&#xca;" horiz-adv-x="1024" d="M164 0v1365h754v-194h-548v-327h531v-194h-531v-456h548v-194q-87 -73 -116 -110.5t-29 -78.5q0 -29 19 -46.5t51 -17.5q51 0 140 48l-30 -165q-62 -41 -151 -41q-97 0 -153 52q-58 53 -58 126q0 112 161 233h-588z" />
<glyph unicode="&#xcb;" horiz-adv-x="1024" d="M164 0v1365h754v-194h-548v-327h531v-194h-531v-456h548v-194h-754zM216 1630q0 51 37 87.5t90 37.5q52 0 89 -37t37 -89q0 -53 -37 -90t-89 -37q-53 0 -90 37.5t-37 90.5zM613 1630q0 51 37 87.5t89 37.5q53 0 90 -37t37 -89q0 -53 -37 -90t-89 -37q-53 0 -90 37.5 t-37 90.5z" />
<glyph unicode="&#xcc;" horiz-adv-x="1024" d="M164 0v1365h754v-194h-548v-327h531v-194h-531v-456h548v-194h-754zM228 1772l136 105l178 -167l176 167l135 -105l-311 -284z" />
<glyph unicode="&#xcd;" horiz-adv-x="534" d="M161 1570l283 285l175 -123l-360 -244zM164 0v1365h206v-1365h-206z" />
<glyph unicode="&#xce;" horiz-adv-x="534" d="M-45 1594l310 283l315 -283l-136 -106l-178 168l-176 -168zM164 0v1365h206v-1365h-206z" />
<glyph unicode="&#xcf;" horiz-adv-x="1315" d="M164 0v1365h287q219 0 345 -47q224 -83 339 -290q84 -152 84 -345q0 -355 -273 -552q-104 -75 -211 -103t-288 -28h-283zM277 1772l136 105l178 -167l176 167l135 -105l-311 -284zM370 194h93q124 0 207.5 22.5t154.5 75.5q91 68 140 173q46 99 46 217q0 168 -91 297 q-72 101 -180.5 146.5t-276.5 45.5h-93v-977z" />
<glyph unicode="&#xd0;" horiz-adv-x="1315" d="M41 622v177h123v566h287q220 0 346 -47q224 -84 339 -290q84 -151 84 -345q0 -355 -274 -552q-104 -75 -211 -103t-288 -28h-283v622h-123zM370 194h93q124 0 207.5 22.5t154.5 75.5q92 68 141 173q46 100 46 218q0 168 -91 296q-72 101 -180.5 146.5t-277.5 45.5h-93 v-372h294v-177h-294v-428z" />
<glyph unicode="&#xd1;" horiz-adv-x="1529" d="M164 0v1458l995 -1041v948h206v-1449l-995 1040v-956h-206zM631 1570l283 285l175 -123l-360 -244z" />
<glyph unicode="&#xd2;" horiz-adv-x="1529" d="M164 0v1458l995 -1041v948h206v-1449l-995 1040v-956h-206zM452 1772l136 105l178 -167l176 167l135 -105l-311 -284z" />
<glyph unicode="&#xd3;" horiz-adv-x="1618" d="M96 688q0 292 218 501q204 197 499 202q310 0 522 -232q188 -204 188 -478q0 -188 -95 -352q-94 -162 -257 -257q-168 -98 -368 -98q-177 0 -339 88q-195 106 -291 290q-77 149 -77 336zM304 686q0 -227 152 -373q151 -145 349 -145q142 0 263 72q124 74 188 197 q59 112 59 245q0 215 -145 367q-139 144 -359 148q-240 0 -388 -180q-119 -145 -119 -331zM662 1570l283 285l175 -123l-360 -244z" />
<glyph unicode="&#xd4;" horiz-adv-x="1618" d="M96 688q0 292 218 501q204 197 499 202q310 0 522 -232q188 -204 188 -478q0 -188 -95 -352q-94 -162 -257 -257q-168 -98 -368 -98q-177 0 -339 88q-195 106 -291 290q-77 149 -77 336zM304 686q0 -227 152 -373q151 -145 349 -145q142 0 263 72q124 74 188 197 q59 112 59 245q0 215 -145 367q-139 144 -359 148q-240 0 -388 -180q-119 -145 -119 -331zM497 1594l310 283l315 -283l-136 -106l-178 168l-176 -168z" />
<glyph unicode="&#xd5;" horiz-adv-x="1618" d="M96 688q0 292 218 501q204 197 499 202q310 0 522 -232q188 -204 188 -478q0 -188 -95 -352q-94 -162 -257 -257q-168 -98 -368 -98q-177 0 -339 88q-195 106 -291 290q-77 149 -77 336zM304 686q0 -227 152 -373q151 -145 349 -145q142 0 263 72q124 74 188 197 q59 112 59 245q0 215 -145 367q-139 144 -359 148q-240 0 -388 -180q-119 -145 -119 -331zM467 1600q54 77 77 102q59 64 149 64q68 0 160 -47q65 -33 81.5 -39.5t36.5 -6.5q29 0 52.5 20.5t57.5 74.5l112 -94q-85 -170 -230 -170q-36 0 -66 9t-95 40q-87 41 -121 41 q-50 0 -98 -92z" />
<glyph unicode="&#xd6;" horiz-adv-x="1618" d="M96 688q0 292 218 501q204 197 499 202q310 0 522 -232q188 -204 188 -478q0 -188 -95 -352q-94 -162 -257 -257q-168 -98 -368 -98q-177 0 -339 88q-195 106 -291 290q-77 149 -77 336zM304 686q0 -227 152 -373q151 -145 349 -145q142 0 263 72q124 74 188 197 q59 112 59 245q0 215 -145 367q-139 144 -359 148q-240 0 -388 -180q-119 -145 -119 -331zM484 1630q0 51 37 87.5t89 37.5q53 0 90 -37t37 -89q0 -53 -37 -90t-89 -37q-53 0 -90 37.5t-37 90.5zM882 1630q0 51 37 87.5t89 37.5q53 0 90 -37t37 -89q0 -53 -37 -90t-89 -37 q-53 0 -90 37.5t-37 90.5z" />
<glyph unicode="&#xd7;" d="M177 419l291 291l-291 292l112 112l291 -292l292 292l112 -112l-291 -292l291 -291l-112 -112l-292 291l-291 -291z" />
<glyph unicode="&#xd8;" horiz-adv-x="1090" d="M164 0v1365h241q132 0 214 -18t146 -61q76 -51 121 -141q42 -85 42 -181q0 -143 -83 -248t-219 -134l423 -582h-252l-390 559h-37v-559h-206zM192 1772l136 105l178 -167l176 167l135 -105l-311 -284zM370 739h66q136 0 205 49q86 60 86 174q0 106 -80 162 q-68 47 -204 47h-73v-432z" />
<glyph unicode="&#xd9;" horiz-adv-x="1338" d="M164 487v878h206v-822q0 -91 9.5 -142t33.5 -93q33 -57 92 -94q74 -46 164 -46q81 0 150 38t106 102q24 42 33.5 93t9.5 142v822h206v-878q0 -191 -104 -321q-71 -91 -178 -141q-106 -51 -223 -51q-166 0 -302 97q-203 145 -203 416zM477 1684q0 78 56 134t136 57 q80 0 137 -57q56 -56 56 -136q0 -81 -56 -137q-57 -57 -136 -57q-81 0 -136 57q-57 57 -57 139zM582 1683q0 -37 25.5 -63t62.5 -26q36 0 61.5 25.5t25.5 62.5q0 36 -25.5 61t-61.5 26q-36 0 -62 -25.5t-26 -60.5z" />
<glyph unicode="&#xda;" horiz-adv-x="1338" d="M164 487v878h206v-822q0 -91 9.5 -142t33.5 -93q33 -57 92 -94q74 -46 164 -46q81 0 150 38t106 102q24 42 33.5 93t9.5 142v822h206v-878q0 -191 -104 -321q-71 -91 -178 -141q-106 -51 -223 -51q-166 0 -302 97q-203 145 -203 416zM522 1570l283 285l175 -123 l-360 -244z" />
<glyph unicode="&#xdb;" horiz-adv-x="1338" d="M164 487v878h206v-822q0 -91 9.5 -142t33.5 -93q33 -57 92 -94q74 -46 164 -46q81 0 150 38t106 102q24 42 33.5 93t9.5 142v822h206v-878q0 -191 -104 -321q-71 -91 -178 -141q-106 -51 -223 -51q-166 0 -302 97q-203 145 -203 416zM381 1570l228 285l171 -123 l-312 -244zM804 1570l228 285l172 -123l-313 -244z" />
<glyph unicode="&#xdc;" horiz-adv-x="1338" d="M164 487v878h206v-822q0 -91 9.5 -142t33.5 -93q33 -57 92 -94q74 -46 164 -46q81 0 150 38t106 102q24 42 33.5 93t9.5 142v822h206v-878q0 -191 -104 -321q-71 -91 -178 -141q-106 -51 -223 -51q-166 0 -302 97q-203 145 -203 416zM344 1630q0 51 37 87.5t90 37.5 q52 0 89 -37t37 -89q0 -53 -37 -90t-89 -37q-53 0 -90 37.5t-37 90.5zM741 1630q0 51 37 87.5t89 37.5q53 0 90 -37t37 -89q0 -53 -37 -90t-89 -37q-53 0 -90 37.5t-37 90.5z" />
<glyph unicode="&#xdd;" horiz-adv-x="1087" d="M-7 1365h238l312 -546l313 546h237l-447 -775v-590h-206v590zM444 1570l283 285l175 -123l-360 -244z" />
<glyph unicode="&#xde;" horiz-adv-x="874" d="M20 1171v194h833v-194h-313v-1171h-206v1171h-314zM238 -443l133 333l155 -59l-166 -323z" />
<glyph unicode="&#xdf;" horiz-adv-x="1127" d="M55 685v177h71v217q0 189 79 295q48 64 128 100q94 43 200 43q195 0 307 -126q97 -110 97 -256q0 -174 -146 -273q68 -29 121 -82q130 -131 130 -322q0 -162 -102 -289q-157 -197 -440 -198v192q130 3 208 55q131 87 131 245q0 109 -69 186q-41 46 -99.5 67.5 t-170.5 33.5v182q108 3 160 42q36 28 58 74.5t22 95.5q0 94 -69 150q-54 44 -137 44q-97 0 -152 -56q-35 -36 -43 -80.5t-14 -219.5v-982h-199v685h-71z" />
<glyph unicode="&#xe0;" horiz-adv-x="678" d="M126 0v862h199v-77q55 58 97.5 79.5t102.5 21.5q78 0 164 -52l-92 -182q-57 41 -109 41q-84 0 -123.5 -60t-39.5 -187v-446h-199zM233 1060l243 323l187 -98l-321 -291z" />
<glyph unicode="&#xe1;" horiz-adv-x="1085" d="M85 433q0 210 129 337q118 115 277 115q82 0 143 -28t127 -95v100h199v-862h-199v91q-68 -65 -127 -91t-137 -26q-189 0 -309 145q-103 124 -103 314zM288 433q0 -135 81 -217q63 -63 157 -63q120 0 190 89q57 73 57 187q0 132 -76 208q-67 67 -169 69q-110 0 -176 -84 q-64 -80 -64 -189zM417 1060l243 323l187 -98l-321 -291z" />
<glyph unicode="&#xe2;" horiz-adv-x="1085" d="M85 433q0 210 129 337q118 115 277 115q82 0 143 -28t127 -95v100h199v-862h-199v91q-68 -65 -127 -91t-137 -26q-189 0 -309 145q-103 124 -103 314zM244 1099l310 284l315 -284l-136 -105l-178 167l-176 -167zM288 433q0 -135 81 -217q63 -63 157 -63q120 0 190 89 q57 73 57 187q0 132 -76 208q-67 67 -169 69q-110 0 -176 -84q-64 -80 -64 -189z" />
<glyph unicode="&#xe3;" horiz-adv-x="1085" d="M85 433q0 210 129 337q118 115 277 115q82 0 143 -28t127 -95v100h199v-862h-199v91q-68 -65 -127 -91t-137 -26q-189 0 -309 145q-103 124 -103 314zM226 1293h164q20 -139 153 -139q134 0 154 139h163q-11 -113 -62 -179q-91 -117 -259 -117q-160 0 -251 117 q-53 69 -62 179zM288 433q0 -135 81 -217q63 -63 157 -63q120 0 190 89q57 73 57 187q0 132 -76 208q-67 67 -169 69q-110 0 -176 -84q-64 -80 -64 -189z" />
<glyph unicode="&#xe4;" horiz-adv-x="1085" d="M85 433q0 210 129 337q118 115 277 115q82 0 143 -28t127 -95v100h199v-862h-199v91q-68 -65 -127 -91t-137 -26q-189 0 -309 145q-103 124 -103 314zM239 1136q0 51 37 87.5t90 37.5q52 0 89 -37t37 -89q0 -53 -37 -90t-89 -37q-53 0 -90 37.5t-37 90.5zM288 433 q0 -135 81 -217q63 -63 157 -63q120 0 190 89q57 73 57 187q0 132 -76 208q-67 67 -169 69q-110 0 -176 -84q-64 -80 -64 -189zM609 1136q0 51 37 87.5t89 37.5q53 0 90 -37t37 -89q0 -53 -37 -90t-89 -37q-53 0 -90 37.5t-37 90.5z" />
<glyph unicode="&#xe5;" horiz-adv-x="451" d="M126 0v1455h199v-1455h-199zM127 1615l258 273l161 -117l-325 -234z" />
<glyph unicode="&#xe6;" horiz-adv-x="863" d="M84 427q0 119 61 226q59 105 158 165q111 67 252 67q128 0 241 -60v-265q-69 83 -122 114.5t-126 31.5q-119 0 -193 -87q-67 -77 -67 -189q0 -118 73 -199q68 -78 184 -78q73 0 126 31t125 117v-263q-120 -64 -243 -64q-216 0 -349 146q-120 133 -120 307zM374 1060 l243 323l187 -98l-321 -291z" />
<glyph unicode="&#xe7;" horiz-adv-x="863" d="M84 427q0 119 61 226q59 105 158 165q111 67 252 67q128 0 241 -60v-265q-69 83 -122 114.5t-126 31.5q-119 0 -193 -87q-67 -77 -67 -189q0 -118 73 -199q68 -78 184 -78q73 0 126 31t125 117v-263q-120 -64 -243 -64q-216 0 -349 146q-120 133 -120 307zM290 -383 l176 274l164 -68l-211 -271z" />
<glyph unicode="&#xe8;" horiz-adv-x="863" d="M84 427q0 119 61 226q59 105 158 165q111 67 252 67q128 0 241 -60v-265q-69 83 -122 114.5t-126 31.5q-119 0 -193 -87q-67 -77 -67 -189q0 -118 73 -199q68 -78 184 -78q73 0 126 31t125 117v-263q-120 -64 -243 -64q-216 0 -349 146q-120 133 -120 307zM188 1277 l136 105l178 -167l176 168l135 -106l-311 -283z" />
<glyph unicode="&#xe9;" horiz-adv-x="1002" d="M85 430q0 105 33 195t92 148q114 112 290 112q148 0 259 -82q152 -114 152 -372q0 -14 -1 -47h-617q5 -63 30 -112q60 -119 195 -119q74 0 123.5 35.5t108.5 131.5l168 -94q-59 -99 -115 -148q-121 -104 -292 -104q-209 0 -332 150q-94 115 -94 306zM306 546h400 q-14 55 -40 87q-58 73 -161 73q-73 0 -126.5 -43.5t-72.5 -116.5zM368 1060l243 323l187 -98l-321 -291z" />
<glyph unicode="&#xea;" horiz-adv-x="1002" d="M85 430q0 104 33 194.5t92 148.5q114 112 290 112q148 0 259 -82q152 -114 152 -372q0 -14 -1 -47h-617q5 -63 30 -112q60 -119 195 -119q74 0 123 35.5t109 130.5l168 -93q-52 -88 -90.5 -126t-136.5 -101q-138 -88 -138 -173q0 -62 78 -62q51 0 112 15l-18 -128 q-62 -37 -132 -37q-90 0 -148 53q-49 46 -49 110q0 115 122 199h-24q-83 0 -161 33q-248 108 -248 421zM306 546h400q-14 55 -40 87q-58 73 -161 73q-73 0 -126.5 -43t-72.5 -117z" />
<glyph unicode="&#xeb;" horiz-adv-x="1002" d="M85 430q0 105 33 195t92 148q114 112 290 112q148 0 259 -82q152 -114 152 -372q0 -14 -1 -47h-617q5 -63 30 -112q60 -119 195 -119q74 0 123.5 35.5t108.5 131.5l168 -94q-59 -99 -115 -148q-121 -104 -292 -104q-209 0 -332 150q-94 115 -94 306zM197 1136 q0 51 37 87.5t90 37.5q52 0 89 -37t37 -89q0 -53 -37 -90t-89 -37q-53 0 -90 37.5t-37 90.5zM306 546h400q-14 55 -40 87q-58 73 -161 73q-73 0 -126.5 -43.5t-72.5 -116.5zM567 1136q0 51 37 87.5t89 37.5q53 0 90 -37t37 -89q0 -53 -37 -90t-89 -37q-53 0 -90 37.5 t-37 90.5z" />
<glyph unicode="&#xec;" horiz-adv-x="1002" d="M85 430q0 105 33 195t92 148q114 112 290 112q148 0 259 -82q152 -114 152 -372q0 -14 -1 -47h-617q5 -63 30 -112q60 -119 195 -119q74 0 123.5 35.5t108.5 131.5l168 -94q-59 -99 -115 -148q-121 -104 -292 -104q-209 0 -332 150q-94 115 -94 306zM196 1277l136 105 l178 -167l176 168l135 -106l-311 -283zM306 546h400q-14 55 -40 87q-58 73 -161 73q-73 0 -126.5 -43.5t-72.5 -116.5z" />
<glyph unicode="&#xed;" horiz-adv-x="451" d="M126 0v862h199v-862h-199zM134 1060l222 323l180 -98l-293 -291z" />
<glyph unicode="&#xee;" horiz-adv-x="451" d="M-73 1099l310 284l315 -284l-136 -105l-178 167l-176 -167zM126 0v862h199v-862h-199z" />
<glyph unicode="&#xef;" horiz-adv-x="1341" d="M85 433q0 210 129 337q118 115 277 115q150 0 270 -123v732h199v-1494h-199v91q-119 -117 -267 -117q-186 0 -306 145q-103 124 -103 314zM288 434q0 -136 81 -218q63 -63 157 -63q120 0 190 89q57 72 57 187q0 132 -76 208q-67 67 -169 69q-110 0 -176 -84 q-64 -80 -64 -188zM1056 1163l133 331l152 -60l-166 -320z" />
<glyph unicode="&#xf0;" horiz-adv-x="1085" d="M85 433q0 210 130 337q117 115 275 115q151 0 271 -123v370h-232v164h232v198h199v-198h109v-164h-109v-1132h-199v91q-119 -117 -267 -117q-186 0 -306 145q-103 124 -103 314zM288 434q0 -136 81 -218q63 -63 157 -63q120 0 190 89q57 72 57 187q0 132 -76 208 q-67 67 -169 69q-110 0 -176 -84q-64 -80 -64 -188z" />
<glyph unicode="&#xf1;" horiz-adv-x="993" d="M126 0v862h199v-80q58 58 110 80.5t126 22.5q81 0 148.5 -31.5t104.5 -85.5q54 -79 54 -240v-528h-199v482q0 118 -26 162q-38 62 -135 62q-101 0 -142 -65.5t-41 -224.5v-416h-199zM350 1060l243 323l187 -98l-321 -291z" />
<glyph unicode="&#xf2;" horiz-adv-x="993" d="M126 0v862h199v-80q58 58 110 80.5t126 22.5q81 0 148.5 -31.5t104.5 -85.5q54 -79 54 -240v-528h-199v482q0 118 -26 162q-38 62 -135 62q-101 0 -142 -65.5t-41 -224.5v-416h-199zM164 1277l136 105l178 -167l176 168l135 -106l-311 -283z" />
<glyph unicode="&#xf3;" horiz-adv-x="1088" d="M85 437q0 191 146 328q123 117 313 120q214 0 348 -155q112 -129 112 -300q0 -201 -146 -336q-128 -120 -318 -120q-210 0 -344 156q-111 129 -111 307zM288 433q0 -136 76 -211q70 -69 180 -69q130 0 201 92q56 72 56 184q0 132 -76 207q-67 68 -181 70q-130 0 -201 -94 q-55 -74 -55 -179zM411 1060l243 323l187 -98l-321 -291z" />
<glyph unicode="&#xf4;" horiz-adv-x="1088" d="M85 437q0 191 146 328q123 117 313 120q214 0 348 -155q112 -129 112 -300q0 -201 -146 -336q-128 -120 -318 -120q-210 0 -344 156q-111 129 -111 307zM232 1099l310 284l315 -284l-136 -105l-178 167l-176 -167zM288 433q0 -136 76 -211q70 -69 180 -69q130 0 201 92 q56 72 56 184q0 132 -76 207q-67 68 -181 70q-130 0 -201 -94q-55 -74 -55 -179z" />
<glyph unicode="&#xf5;" horiz-adv-x="1088" d="M85 437q0 191 146 328q123 117 313 120q214 0 348 -155q112 -129 112 -300q0 -201 -146 -336q-128 -120 -318 -120q-210 0 -344 156q-111 129 -111 307zM202 1106q54 77 77 101q59 64 149 64q68 0 160 -47q66 -33 82 -39.5t36 -6.5q29 0 52.5 20.5t57.5 75.5l112 -95 q-85 -169 -230 -169q-36 0 -66.5 9.5t-94.5 39.5q-87 41 -121 41q-50 0 -98 -92zM288 433q0 -136 76 -211q70 -69 180 -69q130 0 201 92q56 72 56 184q0 132 -76 207q-67 68 -181 70q-130 0 -201 -94q-55 -74 -55 -179z" />
<glyph unicode="&#xf6;" horiz-adv-x="1088" d="M85 437q0 191 146 328q123 117 313 120q214 0 348 -155q112 -129 112 -300q0 -201 -146 -336q-128 -120 -318 -120q-210 0 -344 156q-111 129 -111 307zM233 1136q0 51 37 87.5t90 37.5q52 0 89 -37t37 -89q0 -53 -37 -90t-89 -37q-53 0 -90 37.5t-37 90.5zM288 433 q0 -136 76 -211q70 -69 180 -69q130 0 201 92q56 72 56 184q0 132 -76 207q-67 68 -181 70q-130 0 -201 -94q-55 -74 -55 -179zM603 1136q0 51 37 87.5t89 37.5q53 0 90 -37t37 -89q0 -53 -37 -90t-89 -37q-53 0 -90 37.5t-37 90.5z" />
<glyph unicode="&#xf7;" d="M109 628v164h942v-164h-942zM465 405q0 46 33.5 79t80.5 34q48 0 81.5 -33.5t33.5 -80.5q0 -48 -33.5 -81.5t-80.5 -33.5q-48 0 -81.5 34t-33.5 82zM465 1018q0 46 33.5 79t80.5 34q48 0 81.5 -33.5t33.5 -80.5q0 -48 -33.5 -81.5t-80.5 -33.5q-48 0 -81.5 34t-33.5 82z " />
<glyph unicode="&#xf8;" horiz-adv-x="678" d="M54 1277l136 105l178 -167l176 168l135 -106l-311 -283zM126 0v862h199v-77q55 58 97.5 79.5t102.5 21.5q78 0 164 -52l-92 -182q-57 41 -109 41q-84 0 -123.5 -60t-39.5 -187v-446h-199z" />
<glyph unicode="&#xf9;" horiz-adv-x="987" d="M126 363v499h199v-495q0 -92 25 -137q42 -77 144 -77q87 0 128 52t41 162v495h199v-499q0 -102 -20.5 -164.5t-70.5 -115.5q-104 -109 -277 -109t-277 109q-51 53 -71 115.5t-20 164.5zM301 1189q0 78 56.5 133.5t135.5 56.5q80 0 137 -56q56 -57 56 -136q0 -80 -56 -136 q-57 -57 -136 -57q-81 0 -136 57q-57 57 -57 138zM406 1188q0 -37 25.5 -63t62.5 -26q36 0 61.5 25.5t25.5 62.5q0 36 -25.5 61t-61.5 26q-36 0 -62 -25.5t-26 -60.5z" />
<glyph unicode="&#xfa;" horiz-adv-x="987" d="M126 363v499h199v-495q0 -92 25 -137q42 -77 144 -77q87 0 128 52t41 162v495h199v-499q0 -102 -20.5 -164.5t-70.5 -115.5q-104 -109 -277 -109t-277 109q-51 53 -71 115.5t-20 164.5zM374 1060l243 323l187 -98l-321 -291z" />
<glyph unicode="&#xfb;" horiz-adv-x="987" d="M126 363v499h199v-495q0 -92 25 -137q42 -77 144 -77q87 0 128 52t41 162v495h199v-499q0 -102 -20.5 -164.5t-70.5 -115.5q-104 -109 -277 -109t-277 109q-51 53 -71 115.5t-20 164.5zM241 1060l215 323l168 -98l-295 -291zM610 1060l215 323l168 -98l-296 -291z" />
<glyph unicode="&#xfc;" horiz-adv-x="987" d="M126 363v499h199v-495q0 -92 25 -137q42 -77 144 -77q87 0 128 52t41 162v495h199v-499q0 -102 -20.5 -164.5t-70.5 -115.5q-104 -109 -277 -109t-277 109q-51 53 -71 115.5t-20 164.5zM183 1136q0 51 37 87.5t90 37.5q52 0 89 -37t37 -89q0 -53 -37 -90t-89 -37 q-53 0 -90 37.5t-37 90.5zM553 1136q0 51 37 87.5t89 37.5q53 0 90 -37t37 -89q0 -53 -37 -90t-89 -37q-53 0 -90 37.5t-37 90.5z" />
<glyph unicode="&#xfd;" horiz-adv-x="984" d="M10 862h231l263 -496l246 496h225l-686 -1332h-227l335 630zM400 1060l243 323l187 -98l-321 -291z" />
<glyph unicode="&#xfe;" horiz-adv-x="495" d="M35 -441l133 331l152 -59l-166 -320zM47 676v186h85v315h199v-315h154v-186h-154v-676h-199v676h-85z" />
<glyph unicode="&#xff;" horiz-adv-x="1024" d="M379 1143q0 53 39 91.5t94 39.5q55 0 94 -39t39 -94t-39 -94t-94 -39t-94 39.5t-39 95.5z" />
<glyph unicode="&#x152;" horiz-adv-x="1055" d="M96 377l208 46q13 -104 39 -150q27 -48 80.5 -76.5t116.5 -28.5q104 0 168 74q56 64 56 154q0 115 -95 179q-34 23 -63 36.5t-169 72.5q-280 118 -280 346q0 183 156 286q114 75 254 75q123 0 211.5 -55t157.5 -174l-167 -99q-37 61 -65 86q-52 48 -138 48 q-90 0 -146 -51q-54 -49 -54 -119q0 -68 65 -113q30 -22 57.5 -34.5t162.5 -67.5q171 -70 244 -166q76 -100 76 -236q0 -197 -139 -325q-120 -111 -300 -111q-231 0 -357 182q-59 86 -79 221zM408 1570l283 285l175 -123l-360 -244z" />
<glyph unicode="&#x153;" horiz-adv-x="735" d="M67 187l169 78q36 -65 65.5 -88.5t75.5 -23.5t73.5 25t27.5 67t-29 65t-170 93q-95 46 -131 94.5t-36 128.5q0 120 82 190q80 69 186 69q85 0 144.5 -41t101.5 -129l-165 -88q-38 79 -96 79q-27 0 -46.5 -18t-19.5 -44q0 -27 22.5 -46t92.5 -52q111 -51 164 -88 q103 -71 103 -194q0 -122 -91 -207q-88 -83 -216 -83q-217 0 -307 213zM234 1060l243 323l187 -98l-321 -291z" />
<glyph unicode="&#x178;" horiz-adv-x="984" d="M16 0l558 676h-439v186h833l-557 -675h512v-187h-907zM400 1060l243 323l187 -98l-321 -291z" />
<glyph unicode="&#x2000;" horiz-adv-x="944" />
<glyph unicode="&#x2001;" horiz-adv-x="1888" />
<glyph unicode="&#x2002;" horiz-adv-x="944" />
<glyph unicode="&#x2003;" horiz-adv-x="1888" />
<glyph unicode="&#x2004;" horiz-adv-x="629" />
<glyph unicode="&#x2005;" horiz-adv-x="472" />
<glyph unicode="&#x2006;" horiz-adv-x="314" />
<glyph unicode="&#x2007;" horiz-adv-x="314" />
<glyph unicode="&#x2008;" horiz-adv-x="236" />
<glyph unicode="&#x2009;" horiz-adv-x="377" />
<glyph unicode="&#x200a;" horiz-adv-x="104" />
<glyph unicode="&#x2010;" horiz-adv-x="395" d="M0 351v173h395v-173h-395z" />
<glyph unicode="&#x2011;" horiz-adv-x="395" d="M0 351v173h395v-173h-395z" />
<glyph unicode="&#x2012;" horiz-adv-x="395" d="M0 351v173h395v-173h-395z" />
<glyph unicode="&#x2013;" d="M210 351v173h741v-173h-741z" />
<glyph unicode="&#x2014;" horiz-adv-x="1181" d="M0 351v173h1181v-173h-1181z" />
<glyph unicode="&#x2018;" horiz-adv-x="591" d="M102 919l252 506l135 -55l-210 -520z" />
<glyph unicode="&#x2019;" horiz-adv-x="591" d="M102 906l209 519l178 -69l-252 -506z" />
<glyph unicode="&#x201a;" horiz-adv-x="591" d="M102 -264l209 520l178 -69l-252 -506z" />
<glyph unicode="&#x201c;" horiz-adv-x="945" d="M102 919l252 506l135 -55l-210 -520zM456 919l252 506l134 -55l-209 -520z" />
<glyph unicode="&#x201d;" horiz-adv-x="945" d="M102 906l209 519l178 -69l-252 -506zM456 906l209 519l177 -69l-252 -506z" />
<glyph unicode="&#x201e;" horiz-adv-x="945" d="M102 -264l209 520l178 -69l-252 -506zM456 -264l209 520l177 -69l-252 -506z" />
<glyph unicode="&#x2022;" horiz-adv-x="1365" d="M401 694q0 120 84 202q85 82 204 82q113 0 196 -83q84 -83 84 -201t-83 -201t-201 -83q-116 0 -199 82q-85 84 -85 202z" />
<glyph unicode="&#x2026;" horiz-adv-x="1710" d="M162 99q0 49 36 84.5t87 36.5q51 0 87 -36t36 -87t-36 -87t-87 -36t-87 36.5t-36 88.5zM731 99q0 50 36 85.5t87 36.5q52 0 88 -36t36 -87t-36 -87.5t-87 -36.5q-52 0 -88 36.5t-36 88.5zM1302 99q0 49 36 84.5t87 36.5q51 0 87 -36t36 -87t-36 -87t-87 -36t-87 36.5 t-36 88.5z" />
<glyph unicode="&#x202f;" horiz-adv-x="377" />
<glyph unicode="&#x2039;" horiz-adv-x="664" d="M82 437l340 451l132 -97l-264 -353l265 -339l-132 -98z" />
<glyph unicode="&#x203a;" horiz-adv-x="664" d="M109 99l265 339l-265 353l132 97l341 -451l-341 -436z" />
<glyph unicode="&#x205f;" horiz-adv-x="472" />
<glyph unicode="&#x2122;" horiz-adv-x="1438" d="M-2 1231v134h485v-134h-171v-644h-141v644h-173zM531 587l167 849l259 -575l259 575l167 -849h-144l-73 423l-209 -438l-208 438l-74 -423h-144z" />
<glyph unicode="&#xe000;" horiz-adv-x="860" d="M0 0v860h860v-860h-860z" />
</font>
</defs>
</svg>
